<svg width="84" height="43" viewBox="0 0 84 43" fill="none" xmlns="http://www.w3.org/2000/svg">
<g clip-path="url(#clip0_461_85681)">
<path d="M0 7.40283V30.8755L3.00312 30.8871V19.7097H10.2221V16.7523H2.99157V10.3486H12.4052V7.40283H0ZM17.7877 12.1765C18.3085 12.1765 18.8079 11.968 19.1761 11.5968C19.5444 11.2256 19.7513 10.7221 19.7513 10.1972C19.7513 9.67224 19.5444 9.16879 19.1761 8.79759C18.8079 8.42639 18.3085 8.21785 17.7877 8.21785C17.2669 8.21785 16.7675 8.42639 16.3992 8.79759C16.031 9.16879 15.8241 9.67224 15.8241 10.1972C15.8241 10.7221 16.031 11.2256 16.3992 11.5968C16.7675 11.968 17.2669 12.1765 17.7877 12.1765ZM16.2746 15.1223V30.8871H19.2777V15.1223H16.2746Z" fill="#ACB0B9"/>
<path fill-rule="evenodd" clip-rule="evenodd" d="M30.3776 14.6682C26.4043 14.6682 23.6322 18.0563 23.6322 22.0849C23.6322 26.1134 26.4043 29.5015 30.3776 29.5015C32.2026 29.5015 33.7042 28.803 34.8015 27.6386V29.7344C34.8091 30.3606 34.6935 30.9821 34.4614 31.563C34.2293 32.144 33.8853 32.6727 33.4492 33.1188C33.0131 33.5649 32.4937 33.9194 31.9209 34.1618C31.3481 34.4043 30.7332 34.5299 30.112 34.5314C29.1533 34.5314 28.2062 34.1588 27.4554 33.6232L25.9538 36.2429C27.1149 36.9995 28.457 37.4261 29.8386 37.4778C31.2201 37.5295 32.5899 37.2044 33.8035 36.5367C35.017 35.869 36.0293 34.8836 36.7335 33.6843C37.4377 32.485 37.8077 31.1164 37.8046 29.7228V15.1339H34.8015V16.5427C33.7042 15.3784 32.2026 14.6798 30.3776 14.6798V14.6682ZM26.6237 22.0849C26.6237 19.5816 28.518 17.6139 30.7126 17.6139C32.9072 17.6139 34.7899 19.5932 34.7899 22.0849C34.7899 24.5881 32.8956 26.5442 30.7126 26.5442C28.518 26.5442 26.6237 24.5881 26.6237 22.0849Z" fill="#ACB0B9"/>
<path d="M48.5927 17.6139C47.7338 17.6292 46.9154 17.9847 46.3145 18.6035C45.7136 19.2223 45.3785 20.0547 45.3816 20.9206V30.8872H42.3785V15.1223H45.3816V16.5661C45.831 15.9658 46.4146 15.481 47.085 15.1512C47.7554 14.8214 48.4936 14.6559 49.2395 14.6682C51.3417 14.6682 52.9587 15.7161 53.8828 17.3229C54.3983 16.5174 55.1038 15.8533 55.9363 15.39C56.7688 14.9268 57.7023 14.6788 58.6531 14.6682C62.0605 14.6682 64.1973 17.4393 64.1973 20.874V30.8872H61.2173V20.909C61.2205 20.0431 60.8854 19.2107 60.2845 18.5919C59.6836 17.9731 58.8652 17.6176 58.0063 17.6023C57.1474 17.6176 56.329 17.9731 55.7281 18.5919C55.1272 19.2107 54.7921 20.0431 54.7953 20.909V30.8755H51.7921V20.909C51.7954 20.045 51.4618 19.2144 50.8634 18.5959C50.265 17.9774 49.4495 17.6206 48.5927 17.6023V17.6139Z" fill="#ACB0B9"/>
<path fill-rule="evenodd" clip-rule="evenodd" d="M80.1717 16.9153C79.4897 16.1985 78.6699 15.6295 77.7622 15.2431C76.8546 14.8568 75.8783 14.6611 74.8931 14.6682C70.4346 14.6682 67.2698 18.4639 67.2698 23.0047C67.2698 27.5455 70.4346 31.3412 74.8931 31.3412C75.878 31.3462 76.8537 31.1497 77.761 30.7634C78.6684 30.3772 79.4885 29.8092 80.1717 29.0941V30.8871H83.1632V15.1223H80.1601V16.9153H80.1717ZM70.2614 23.0047C70.2614 20.0008 72.5484 17.6139 75.2165 17.6139C77.8731 17.6139 80.1717 20.0008 80.1717 23.0047C80.1717 26.0086 77.8847 28.3838 75.2165 28.3838C72.5599 28.3838 70.2614 26.0086 70.2614 23.0047Z" fill="#ACB0B9"/>
</g>
<defs>
<clipPath id="clip0_461_85681">
<rect width="83.1632" height="42.4663" fill="white" transform="translate(0 0.325195)"/>
</clipPath>
</defs>
</svg>
