<svg width="120" height="43" viewBox="0 0 120 43" fill="none" xmlns="http://www.w3.org/2000/svg">
<g clip-path="url(#clip0_461_85690)">
<path d="M0 2.09473H25.783V14.9862H12.8915L0 2.09473ZM0 14.9862H12.8915L25.783 27.8777H0V14.9862ZM0 27.8777H12.8915V40.7692L0 27.8777Z" fill="#ACB0B9"/>
<path d="M40.3306 12.2648H50.7525V15.5766H44.2752V20.1789H50.7525V23.4176H44.2752V29.3104H40.3306V12.2648ZM52.8953 17.5731H56.6211V20.0326C56.8158 19.1874 57.2139 18.5387 57.8143 18.0845C58.4301 17.6132 59.1137 17.3785 59.8598 17.3785C60.2496 17.3785 60.5746 17.4115 60.8335 17.4758V20.9339C60.462 20.889 60.088 20.8649 59.7135 20.8607C58.6908 20.8607 57.9205 21.1928 57.4003 21.8587C56.8818 22.5081 56.6211 23.4819 56.6211 24.7812V29.3104H52.8971V17.5731H52.8953ZM66.7151 29.6271C65.5791 29.6271 64.5883 29.3587 63.7442 28.8232C62.9162 28.2876 62.2579 27.5274 61.8451 26.6314C61.4068 25.6907 61.1862 24.6261 61.1862 23.4417C61.1862 22.2727 61.4151 21.217 61.8692 20.2762C62.2951 19.3673 62.971 18.5988 63.8174 18.0603C64.6767 17.5248 65.6594 17.2564 66.7641 17.2564C67.5916 17.2564 68.3312 17.4357 68.98 17.7925C69.6288 18.1506 70.116 18.6377 70.4409 19.2535V17.5731H74.142V29.3104H70.4409V27.6542C70.116 28.2387 69.6129 28.717 68.931 29.0909C68.2492 29.4525 67.4872 29.6365 66.7151 29.6271ZM67.7868 26.5341C68.6792 26.5341 69.3693 26.2422 69.8565 25.6577C70.3436 25.0732 70.5872 24.3341 70.5872 23.4417C70.5872 22.5653 70.3436 21.8345 69.8565 21.25C69.3693 20.6655 68.6792 20.3736 67.7868 20.3736C66.9416 20.3736 66.261 20.6573 65.7413 21.2258C65.2382 21.7944 64.9864 22.5323 64.9864 23.4417C64.9864 24.3512 65.2382 25.0973 65.7413 25.6818C66.261 26.2504 66.9428 26.5341 67.7868 26.5341ZM76.7478 17.5731H80.4736V19.2777C80.7343 18.6761 81.1554 18.1889 81.7393 17.8167C82.341 17.4446 83.0387 17.2564 83.8338 17.2564C85.6846 17.2564 86.9108 17.9783 87.5106 19.424C87.8409 18.7687 88.3576 18.2266 88.9964 17.8657C89.6794 17.4546 90.4638 17.244 91.2607 17.2564C94.0369 17.2564 95.4247 18.8465 95.4247 22.0292V29.3104H91.6747V22.711C91.6747 21.9165 91.5284 21.332 91.2365 20.9581C90.9439 20.5853 90.5057 20.3977 89.9212 20.3977C89.2883 20.3977 88.8011 20.6171 88.4602 21.0554C88.1193 21.4777 87.9489 22.2155 87.9489 23.2713V29.3104H84.1989V22.6868C84.1989 21.8917 84.0532 21.3149 83.7606 20.9581C83.4858 20.5853 83.0546 20.3977 82.4713 20.3977C81.8213 20.3977 81.3259 20.6171 80.985 21.0554C80.6441 21.4777 80.4736 22.2155 80.4736 23.2713V29.3104H76.749V17.5731H76.7478ZM109.421 22.8331C109.421 23.3356 109.388 23.88 109.322 24.4645H100.655C100.688 25.2277 100.947 25.811 101.434 26.218C101.921 26.6232 102.58 26.8267 103.406 26.8267C104.559 26.8267 105.29 26.4769 105.598 25.7792H109.25C109.071 26.9322 108.438 27.8647 107.351 28.5796C106.28 29.2773 104.964 29.6271 103.406 29.6271C101.394 29.6271 99.8105 29.0827 98.6575 27.9951C97.5215 26.9069 96.9529 25.3899 96.9529 23.4417C96.9529 22.1754 97.2124 21.0796 97.732 20.1541C98.234 19.2299 99.0078 18.482 99.948 18.0114C100.906 17.5088 102.018 17.2564 103.286 17.2564C104.486 17.2564 105.549 17.4917 106.474 17.963C107.416 18.4343 108.139 19.0913 108.641 19.9353C109.161 20.7805 109.421 21.746 109.421 22.8331ZM105.742 22.1512C105.726 21.3721 105.508 20.7788 105.085 20.3736C104.663 19.9684 104.054 19.7649 103.259 19.7649C102.464 19.7649 101.831 19.9837 101.359 20.4225C100.905 20.8448 100.67 21.4205 100.653 22.1512H105.742ZM111.064 17.5731H114.789V20.0326C114.984 19.1874 115.382 18.5387 115.983 18.0845C116.565 17.6256 117.286 17.3767 118.028 17.3785C118.417 17.3785 118.743 17.4115 119.002 17.4758V20.9339C118.63 20.889 118.256 20.8649 117.882 20.8607C116.859 20.8607 116.089 21.1928 115.568 21.8587C115.048 22.5081 114.789 23.4819 114.789 24.7812V29.3104H111.064V17.5731Z" fill="#ACB0B9"/>
</g>
<defs>
<clipPath id="clip0_461_85690">
<rect width="119.437" height="42.4663" fill="white" transform="translate(0 0.325195)"/>
</clipPath>
</defs>
</svg>
