<svg width="114" height="43" viewBox="0 0 114 43" fill="none" xmlns="http://www.w3.org/2000/svg">
<g clip-path="url(#clip0_461_85686)">
<path fill-rule="evenodd" clip-rule="evenodd" d="M88.1104 28.2975C91.0291 28.2975 93.403 25.9707 93.403 23.1108C93.403 20.2507 91.0291 17.924 88.1104 17.924C85.1923 17.924 82.8179 20.2507 82.8179 23.1108C82.8179 25.9707 85.1923 28.2975 88.1104 28.2975ZM93.403 10.2207H93.5466H95.9106V30.7723H93.403V28.7203C91.956 30.0347 90.0901 30.7547 88.1104 30.7547C83.8098 30.7547 80.3108 27.3256 80.3108 23.1108C80.3108 18.8957 83.8098 15.4667 88.1104 15.4667C90.0901 15.4667 91.956 16.1866 93.403 17.5012V10.2207ZM36.111 28.207C39.0293 28.207 41.4036 25.8802 41.4036 23.0202C41.4036 20.1603 39.0293 17.8336 36.111 17.8336C33.1926 17.8336 30.8184 20.1603 30.8184 23.0202C30.8184 25.8802 33.1926 28.207 36.111 28.207ZM30.8184 17.4109C32.2655 16.0964 34.1318 15.3763 36.111 15.3763C40.4118 15.3763 43.9109 18.8054 43.9109 23.0202C43.9109 27.2351 40.4118 30.6642 36.111 30.6642C34.1318 30.6642 32.2655 29.9443 30.8184 28.6296V35.9102H28.311V15.3586H30.8184V17.4109ZM48.695 21.8267C49.2594 19.504 51.362 17.8362 53.7604 17.8362C56.1275 17.8362 58.1103 19.4684 58.6388 21.8267H48.695ZM53.7604 15.3586C49.524 15.3586 46.0776 18.816 46.0776 23.0655C46.0776 27.315 49.524 30.7723 53.7604 30.7723C56.1328 30.7723 58.3101 29.8814 59.7351 28.3279L60.4753 27.5204L60.5708 27.4163L60.4669 27.3202L58.8574 25.835L58.7536 25.739L58.6577 25.8433L57.9174 26.6509C56.9732 27.6802 55.4192 28.2949 53.7604 28.2949C51.362 28.2949 49.2595 26.6271 48.695 24.3042H61.2439V23.0655C61.2439 18.7439 57.9567 15.3586 53.7604 15.3586ZM110.736 23.0655C110.736 25.949 108.362 28.2948 105.443 28.2948C102.525 28.2948 100.151 25.949 100.151 23.0655C100.151 20.1819 102.525 17.8361 105.443 17.8361C108.362 17.8361 110.736 20.1819 110.736 23.0655ZM105.443 15.3586C101.143 15.3586 97.6439 18.8159 97.6439 23.0655C97.6439 27.315 101.143 30.7723 105.443 30.7723C109.745 30.7723 113.244 27.315 113.244 23.0655C113.244 18.8159 109.745 15.3586 105.443 15.3586ZM70.5603 15.3586C68.8181 15.3586 67.1583 16.0221 65.8518 17.2338V15.3586H63.4108V30.7723H65.8518V22.9064C65.8518 20.1001 67.9641 17.8168 70.5603 17.8168C73.157 17.8168 75.2699 20.1001 75.2699 22.9064V30.7723H77.7104V22.9064C77.7104 18.7446 74.5029 15.3586 70.5603 15.3586Z" fill="#ACB0B9"/>
<path fill-rule="evenodd" clip-rule="evenodd" d="M0 24.9007H11.7961V36.4348L23.5924 24.9007V13.3667H11.7961L0 24.9007Z" fill="#ACB0B9"/>
</g>
<defs>
<clipPath id="clip0_461_85686">
<rect width="113.244" height="42.4663" fill="white" transform="translate(0 0.325195)"/>
</clipPath>
</defs>
</svg>
