<svg width="89" height="43" viewBox="0 0 89 43" fill="none" xmlns="http://www.w3.org/2000/svg">
<g clip-path="url(#clip0_461_85688)">
<path fill-rule="evenodd" clip-rule="evenodd" d="M19.8173 37.1294C21.5129 36.077 22.9379 34.7928 24.1436 33.4554C25.0068 35.2184 26.7391 36.4217 28.576 36.4217C29.9916 36.4217 31.4071 35.7139 32.3803 34.3868C32.7342 35.6254 33.6189 36.4217 35.1229 36.4217C36.2516 36.4217 38.7121 35.2698 40.9432 33.563L40.6966 34.8291C40.6081 35.183 40.6081 35.4484 40.6081 35.6254C40.6966 36.1562 41.0504 36.4216 41.5813 36.4216C42.6429 36.4216 44.1469 35.4484 44.5008 33.856L45.0317 31.6442C45.651 28.8131 49.8091 24.5664 50.9592 24.5664C51.0477 24.5664 51.2247 24.6549 51.2247 24.8319C51.2598 25.1128 51.058 25.6445 50.763 26.4216C50.3149 27.6025 49.6518 29.3498 49.2783 31.6442C49.1013 32.3519 49.1013 33.0597 49.1898 33.5905C49.3668 35.2715 50.3399 36.4216 52.1978 36.4216C53.7878 36.4216 57.2349 35.0644 59.6509 32.35C59.8331 33.8234 60.1447 35.0767 60.6027 35.8908C60.7796 36.2447 61.222 36.3332 61.6643 36.3332C62.1952 36.3332 62.9029 36.1563 63.6992 35.7139C65.5571 34.7407 67.9458 32.4405 70.2461 29.0785C70.6 29.167 70.8654 29.167 71.1308 29.167C72.0488 29.167 73.0748 28.843 74.0274 28.2697C73.6315 29.4653 73.4771 30.6863 73.608 31.8211C73.9619 34.4753 76.1737 36.5101 78.5624 36.5101C79.8895 36.5101 81.3051 35.7139 82.2782 34.4753C82.6321 36.1562 83.6938 37.9256 86.3479 38.9873C86.5249 39.0758 86.7018 39.0758 86.8788 39.0758C87.4096 39.0758 87.7635 38.7219 87.675 38.2795C87.675 38.1026 87.5865 37.8372 87.3211 37.6602C86.7018 37.1294 85.994 36.1562 85.8171 34.6522C85.7286 33.9444 85.7286 33.0597 86.171 32.175C86.7018 29.7863 86.7903 29.0785 86.7903 28.8131C86.7018 28.1938 86.2595 27.9284 85.7286 27.9284C84.667 27.9284 83.163 28.99 82.8091 30.494C82.1898 32.7943 80.5973 34.2983 79.5356 34.2983C78.2086 34.2983 77.5008 32.8828 77.3238 31.3788C76.8815 27.6629 79.1817 23.1509 82.6321 23.1509C83.6053 23.1509 84.7554 23.5048 84.8439 24.5664C84.9526 25.5449 84.3599 25.7886 83.9072 25.9747C83.6232 26.0915 83.3943 26.1856 83.4284 26.4243C83.5168 27.1321 84.667 27.3091 85.4632 27.3091C86.171 27.3091 88.4713 26.7782 88.1174 24.2126C87.8519 22.1777 85.6402 21.2045 83.163 21.2045C80.2058 21.2045 77.689 22.7019 75.975 24.7738C75.738 24.9137 75.4879 25.1637 75.2005 25.4512C74.6697 26.0705 73.608 26.6898 72.2809 26.6898C72.104 26.6898 71.7501 26.6013 71.7501 26.6013C72.6348 24.9204 73.2541 23.1509 73.2541 21.6469C73.2541 19.1697 71.7501 17.9311 70.0691 17.9311C67.9458 17.9311 65.734 19.789 65.734 23.5048C65.734 25.7166 66.6188 27.486 68.1228 28.4592C66.3533 31.2903 63.9646 33.6791 63.6107 33.6791C63.4886 33.6791 63.4507 33.5525 63.4099 33.416C63.3916 33.3547 63.3727 33.2915 63.3453 33.2367C63.0799 32.2635 62.8145 30.3171 62.8145 29.167C62.8145 27.0437 63.1684 24.9204 63.9646 22.7086C64.0531 22.4432 64.1415 22.1778 64.1415 22.0008C64.1415 21.3815 63.6992 21.1161 63.1684 21.1161C62.1067 21.1161 60.4257 22.3547 59.9834 23.6818C59.6295 24.9204 59.4526 26.6898 59.4526 28.8131C59.4526 29.2025 59.4589 29.5888 59.4716 29.9691C57.3603 32.8153 54.7549 33.7675 53.9673 33.7675C52.9941 33.7675 52.8171 32.8828 52.9941 32.5289C53.6134 29.9632 54.4096 27.0436 55.1174 25.0088C55.4713 24.0356 55.6482 23.1509 55.5598 22.6201C55.3828 21.6469 54.7635 21.2045 53.8788 21.2045C51.7555 21.2045 48.3936 23.3278 46.1818 26.2474L46.8896 23.0624C46.978 22.7085 46.978 22.4431 46.978 22.2662C46.8896 21.6469 46.5357 21.3815 46.0048 21.3815C43.5276 21.3815 43.0853 22.6201 42.8199 23.8587C42.7686 24.1661 42.0645 27.7972 41.481 30.7989C39.5931 32.5315 37.4777 33.6791 36.8924 33.6791C36.1846 33.6791 35.9192 33.1482 35.9192 32.7059C35.9192 32.4003 36.095 31.5673 36.2612 30.7802C36.3837 30.1998 36.5009 29.6443 36.5385 29.344C36.627 28.9901 36.627 28.7247 36.627 28.5477C36.5385 28.0169 36.0961 27.7515 35.5653 27.7515C34.5036 27.7515 32.9996 28.8131 32.6457 30.3171C32.1149 32.6174 30.5224 34.1214 29.4608 34.1214C28.1337 34.1214 27.4259 32.7059 27.249 31.2903C26.8066 28.1053 28.8415 22.974 32.5573 22.974C33.6189 22.974 34.6806 23.3279 34.7691 24.3895C34.8762 25.4073 34.3346 25.6467 33.9103 25.8343C33.6338 25.9565 33.4071 26.0567 33.442 26.3359C33.5305 27.0437 34.6806 27.2206 35.3884 27.2206C36.1846 27.2206 38.3964 26.6898 38.0425 24.1241C37.7771 22.0893 35.6538 21.0276 33.0881 21.0276C27.1376 21.0276 23.1779 26.9132 23.6059 31.5788C22.0948 33.3471 20.585 34.4105 17.871 35.8023C16.3669 36.5986 14.5975 37.0409 13.005 37.0409C8.05062 37.0409 5.66188 32.5289 5.21953 28.6361C3.98093 18.7273 12.8281 5.01424 18.9326 5.01424C20.3482 5.01424 21.5868 6.25284 21.8522 8.19922C22.2061 11.2072 22.1176 13.3306 19.0211 15.8962C18.6672 16.1617 18.5787 16.604 18.7557 16.8694C19.0211 17.2233 19.9058 17.3118 21.5868 16.4271C24.9487 14.7461 26.0988 12.1804 25.7449 9.1724C25.391 5.81049 22.4715 3.06787 18.5787 3.06787C16.6324 3.06787 14.5975 3.5987 12.7396 4.74883C4.6887 9.70323 -0.531121 20.8506 0.442066 29.3439C0.795952 32.0865 1.94608 35.0061 4.0694 37.0409C5.48494 38.368 8.05062 39.9605 11.1471 39.9605C14.509 39.9605 17.3401 38.7219 19.8173 37.1294ZM69.5383 25.4512C68.6536 24.478 67.9458 22.974 67.9458 21.5585C67.9458 20.7622 68.2112 19.8775 68.8305 19.8775C69.3614 19.8775 70.0691 20.6737 70.0691 22.5316C70.0691 23.5048 69.8922 24.478 69.5383 25.4512Z" fill="#ACB0B9"/>
</g>
<defs>
<clipPath id="clip0_461_85688">
<rect width="88.4715" height="42.4663" fill="white" transform="translate(0 0.325195)"/>
</clipPath>
</defs>
</svg>
