<svg width="101" height="43" viewBox="0 0 101 43" fill="none" xmlns="http://www.w3.org/2000/svg">
<g clip-path="url(#clip0_461_85684)">
<path d="M27.6831 27.8256C24.8667 27.8256 23.0022 25.6921 22.4821 24.8657C23.1494 19.6377 25.1023 17.9847 27.6831 17.9847C30.2346 17.9847 32.2169 19.9836 32.2169 22.9051C32.2169 25.8266 30.2346 27.8256 27.6831 27.8256ZM27.6831 14.7749C23.0906 14.7749 20.5195 17.706 19.7835 20.7236C18.9494 19.186 18.3311 17.1294 17.8503 15.217H11.5011V22.9532C11.5011 25.7594 10.1959 27.8352 7.64451 27.8352C5.09306 27.8352 3.6309 25.7594 3.6309 22.9532L3.66033 15.217H0V22.9532C0 25.2116 0.745806 27.2586 2.10984 28.7193C3.51314 30.2281 5.42671 31.0161 7.64451 31.0161C12.0605 31.0161 15.1419 27.7007 15.1419 22.9532V17.7541C15.603 19.4647 16.7022 22.7514 18.8021 25.6345L16.8395 36.5805H20.5588L21.854 28.825C22.276 29.171 22.7274 29.4785 23.2083 29.7573C24.4545 30.5261 25.8775 30.9585 27.3495 31.0065C27.3495 31.0065 27.5751 31.0161 27.6929 31.0161C32.2463 31.0161 35.8673 27.5662 35.8673 22.9051C35.8673 18.2442 32.2365 14.7749 27.6831 14.7749Z" fill="#ACB0B9"/>
<path d="M80.2722 16.8705V15.2175H76.6807V30.5266H80.3214V24.5298C80.3214 20.8395 80.6648 18.1871 85.7186 18.5331V15.0349C83.3634 14.862 81.5284 15.3425 80.2722 16.8705Z" fill="#ACB0B9"/>
<path d="M54.9947 15.2183L52.3549 25.9241L49.5385 15.2183H44.9067L42.0805 25.9241L39.4506 15.2183H35.7607L39.8039 30.537H44.1806L47.2226 19.6582L50.2353 30.537H54.612L58.8906 15.2183H54.9947Z" fill="#ACB0B9"/>
<path d="M66.9078 27.8352C64.3171 27.8352 62.3741 25.8363 62.3741 22.9051C62.3741 19.974 64.327 17.9847 66.9078 17.9847C69.4593 17.9847 71.4416 19.9836 71.4416 22.9051C71.4416 25.8266 69.4593 27.8352 66.9078 27.8352ZM66.9078 14.7749C62.325 14.7749 58.7334 18.2538 58.7334 22.9051C58.7334 27.5564 62.325 31.0065 66.9078 31.0065C71.4611 31.0065 75.0823 27.5564 75.0823 22.9051C75.0823 18.2538 71.471 14.7749 66.9078 14.7749Z" fill="#ACB0B9"/>
<path d="M90.9401 23.0015H91.7841L96.8673 30.5359H100.979L95.1303 22.1846C97.9664 21.0986 99.8702 18.2636 99.8702 15.2172H96.2392C96.2392 18.5231 93.5799 19.7724 90.9401 19.7724V9.17236H87.2896V30.5359H90.9302L90.9401 23.0015Z" fill="#ACB0B9"/>
</g>
<defs>
<clipPath id="clip0_461_85684">
<rect width="100.858" height="42.4663" fill="white" transform="translate(0 0.325195)"/>
</clipPath>
</defs>
</svg>
