<svg width="100" height="43" viewBox="0 0 100 43" fill="none" xmlns="http://www.w3.org/2000/svg">
<path fill-rule="evenodd" clip-rule="evenodd" d="M98.4634 27.3649C94.3424 34.3517 87.8159 32.3243 85.8558 30.737C85.0216 31.303 83.5588 32.5436 81.6083 32.4004C77.4544 32.0954 75.9668 26.1593 75.9668 26.1593C75.9967 26.183 74.7294 26.5966 74.0446 26.5892C74.0358 28.33 72.5309 32.4885 68.4698 32.4353C63.9125 32.3759 62.9861 25.5864 62.9861 25.5864C62.9861 25.5864 62.5326 26.2161 60.8082 26.8434C60.895 25.5059 60.8316 32.2317 55.3695 32.3306C51.0514 32.4088 49.8858 25.4817 49.8858 25.4817C49.8858 25.4817 49.1367 26.2598 47.685 26.5297C47.7772 25.1705 47.6272 32.3534 42.1645 32.3306C38.4729 32.3153 37.2114 28.0635 37.3095 27.4733C37.4347 26.7213 36.0619 32.4363 32.476 32.3473C30.9962 32.3038 29.893 31.2324 29.2008 29.804C28.2741 30.8644 26.9286 32.3473 25.4192 32.3473C22.7099 32.3473 21.5155 30.0812 21.7178 23.6089C21.735 22.8412 21.6796 22.5393 20.9165 22.4244C20.4585 22.348 19.9894 22.2033 19.4931 22.127C19.334 22.6579 17.9847 32.1746 13.3452 32.3552C11.7888 32.4158 10.9377 31.0675 10.2388 30.0668C9.16738 31.4842 7.75307 32.4004 5.73826 32.4004C2.32533 32.4004 0 29.6413 0 26.2379C0 22.8343 2.32533 20.0756 5.73826 20.0756C6.3417 20.0756 6.5111 20.1621 7.06238 20.3229C5.92865 10.0007 8.60606 8.38744 10.9482 8.38744C13.1968 8.38744 17.0383 13.6064 11.633 26.8444C12.8331 30.7929 15.4202 30.5696 16.6634 22.4413C16.9164 20.7891 16.2399 18.5594 17.2922 18.2483C19.2159 17.6796 19.42 19.3859 20.322 19.6702C21.2757 19.9706 21.8323 19.9413 22.7479 20.1325C24.3124 20.438 24.9229 21.2785 24.7323 23.1503C24.5034 25.5188 24.103 28.9661 25.3239 29.3862C26.2043 29.6914 27.8117 27.8656 28.0938 26.8666C28.3758 25.8676 28.4347 25.5257 28.4597 24.7929C28.4979 23.2269 28.5458 22.0789 28.8128 20.8945C28.9271 20.4362 29.0574 20.1327 29.5759 20.112C30.0026 20.1011 30.7828 19.9726 31.1263 20.24C31.5841 20.5839 31.5268 20.933 31.4743 21.8516C30.9419 34.9486 35.0396 28.4104 36.2614 23.1753C35.8264 17.2557 36.1251 8.49584 39.8346 8.34892C41.7638 8.27251 42.6167 9.81805 42.7106 10.9717C42.9759 14.2299 41.4895 19.627 39.5347 23.2566C38.4175 30.6625 44.4195 32.1269 45.3793 26.2155C43.809 25.4688 42.1119 22.4468 43.4929 20.974C44.2678 20.1475 47.4935 21.3349 47.5463 23.9246C49.1285 23.5014 49.3398 22.608 49.3617 22.7561C48.9268 16.8364 49.3302 8.49591 53.04 8.34899C54.9689 8.27259 55.8217 9.81813 55.9155 10.9717C56.1809 14.2299 54.6945 19.6271 52.74 23.2567C51.6226 30.6625 57.6247 32.127 58.5843 26.2156C57.4216 25.9912 54.9674 22.7769 56.3834 20.9741C57.1402 20.0107 60.354 22.0141 60.7139 24.0103C62.2339 23.5802 62.4403 22.7152 62.4621 22.8608C62.027 16.9413 62.4304 8.60082 66.1402 8.4539C68.0692 8.3775 68.922 9.92304 69.0158 11.0766C69.2812 14.3348 67.7948 19.7321 65.84 23.3617C64.7229 30.7676 70.7248 32.2317 71.6847 26.3203C70.0869 26.0543 67.8163 22.6603 69.6438 20.9241C70.374 20.2303 73.1639 22.0311 73.817 24.0856C74.7244 24.0507 75.2892 23.7377 75.4103 23.7062C73.9617 16.7569 75.0401 8.4187 79.0308 8.3491C81.1878 8.31151 83.2965 9.51519 82.3709 16.1265C81.4874 22.4346 78.3115 25.0818 78.3189 25.1222C78.5037 25.878 80.1333 32.2024 84.2371 28.8654C84.0247 28.3844 83.812 27.893 83.6931 27.2976C83.0129 23.8299 84.3489 19.913 87.9802 19.2799C90.0608 18.9172 92.0206 19.9301 92.3305 22.2137C92.8403 25.9504 89.4662 28.6565 88.1832 29.2435C87.6085 28.917 93.3924 32.6265 96.8251 25.1926C97.0241 24.7681 97.264 24.8041 97.5749 25.0228C97.7945 25.1774 99.0451 26.3621 98.4634 27.3649ZM8.22086 25.3197C8.0462 24.7976 7.68777 23.647 7.56102 23.1485C6.86298 22.5415 6.36473 22.4429 5.46872 22.4429C3.47752 22.4429 2.30553 24.2839 2.30553 26.269C2.30553 28.2541 3.58233 30.0954 5.57354 30.0954C7.29916 30.0954 8.61251 28.9221 9.0132 27.2612C8.73274 26.6137 8.45452 26.0186 8.22086 25.3197ZM10.8994 11.1198C9.50029 11.1198 9.02567 14.4575 9.11777 17.3048C9.19925 19.8222 9.90268 22.0384 10.2676 23.0314C10.3602 23.1559 10.343 23.0749 10.4257 23.2069C12.8551 17.8841 11.8475 11.1198 10.8994 11.1198ZM40.0344 11.2247C38.2261 11.0173 38.2378 18.5502 38.4623 20.24C39.4015 18.7375 41.0329 11.6292 40.0344 11.2247ZM53.2394 11.2247C51.4311 11.0173 51.4428 18.5502 51.6674 20.24C52.6064 18.7375 54.238 11.6292 53.2394 11.2247ZM66.3398 11.3295C64.5313 11.1221 64.543 18.6551 64.7676 20.3449C65.7067 18.8424 67.3383 11.734 66.3398 11.3295ZM79.2304 10.7837C76.4129 11.3495 77.069 20.7433 77.4969 22.3908C80.8156 17.8326 80.884 10.6125 79.2304 10.7837ZM89.7894 22.5228C89.6462 21.9238 88.9299 21.6037 88.4355 21.6826C87.0209 21.8758 85.6488 23.6377 86.18 26.32C86.2982 26.9174 86.594 27.4674 86.5892 27.4491C89.7552 25.3251 90.0243 23.6513 89.7894 22.5228ZM30.1305 18.0386C29.7262 18.0387 29.3309 17.9188 28.9947 17.6943C28.6585 17.4697 28.3964 17.1504 28.2416 16.7769C28.0868 16.4034 28.0463 15.9923 28.1252 15.5958C28.204 15.1992 28.3988 14.8349 28.6846 14.549C28.9705 14.2631 29.3347 14.0684 29.7312 13.9895C30.1278 13.9106 30.5389 13.9511 30.9124 14.1058C31.286 14.2605 31.6052 14.5226 31.8298 14.8588C32.0544 15.1949 32.1743 15.5902 32.1743 15.9945C32.1743 16.2629 32.1215 16.5287 32.0187 16.7767C31.9161 17.0247 31.7656 17.25 31.5757 17.4398C31.3859 17.6297 31.1607 17.7802 30.9127 17.883C30.6647 17.9857 30.399 18.0386 30.1305 18.0386Z" fill="#ACB0B9"/>
</svg>
