<svg width="32" height="33" viewBox="0 0 32 33" fill="none" xmlns="http://www.w3.org/2000/svg">
<rect y="0.458313" width="32" height="32" rx="8" fill="#F1F2F3"/>
<g clip-path="url(#clip0_450_17067)">
<path d="M12.3333 26.4583C14.1733 26.4583 15.6667 24.965 15.6667 23.125V19.7917H12.3333C10.4933 19.7917 9 21.285 9 23.125C9 24.965 10.4933 26.4583 12.3333 26.4583Z" fill="#0ACF83"/>
<path d="M9 16.4583C9 14.6183 10.4933 13.125 12.3333 13.125H15.6667V19.7916H12.3333C10.4933 19.7916 9 18.2983 9 16.4583Z" fill="#A259FF"/>
<path d="M9 9.79165C9 7.95165 10.4933 6.45831 12.3333 6.45831H15.6667V13.125H12.3333C10.4933 13.125 9 11.6316 9 9.79165Z" fill="#F24E1E"/>
<path d="M15.6665 6.45831H18.9998C20.8398 6.45831 22.3332 7.95165 22.3332 9.79165C22.3332 11.6316 20.8398 13.125 18.9998 13.125H15.6665V6.45831Z" fill="#FF7262"/>
<path d="M22.3332 16.4583C22.3332 18.2983 20.8398 19.7916 18.9998 19.7916C17.1598 19.7916 15.6665 18.2983 15.6665 16.4583C15.6665 14.6183 17.1598 13.125 18.9998 13.125C20.8398 13.125 22.3332 14.6183 22.3332 16.4583Z" fill="#1ABCFE"/>
</g>
<defs>
<clipPath id="clip0_450_17067">
<rect width="13.3333" height="20" fill="white" transform="translate(9 6.45831)"/>
</clipPath>
</defs>
</svg>
