<svg width="156" height="47" viewBox="0 0 156 47" fill="none" xmlns="http://www.w3.org/2000/svg">
<rect y="7.45831" width="32" height="32" rx="6" fill="#131313"/>
<path d="M13.4478 18.1671C13.4478 15.5665 15.5559 13.4583 18.1565 13.4583H23.6501C23.6501 16.0589 21.5419 18.1671 18.9413 18.1671H13.4478Z" fill="white"/>
<path d="M13.4478 18.1671L13.4478 28.93C13.4478 31.5306 11.3396 33.6388 8.73897 33.6388L8.73897 22.8759C8.73897 20.2753 10.8472 18.1671 13.4478 18.1671Z" fill="white"/>
<path d="M13.2881 21.6468C13.2881 24.1592 15.3248 26.1959 17.8372 26.1959H23.2962C23.2962 23.6835 21.2595 21.6468 18.7471 21.6468H13.2881Z" fill="white"/>
<path d="M37.0114 29.4583V17.8219H44.7159V19.8504H39.4716V22.6231H44.2045V24.6515H39.4716V29.4583H37.0114ZM48.6977 17.8219V29.4583H46.2773V17.8219H48.6977ZM53.0773 29.6231C52.5205 29.6231 52.0243 29.5265 51.5887 29.3333C51.1531 29.1363 50.8084 28.8466 50.5546 28.464C50.3046 28.0776 50.1796 27.5966 50.1796 27.0208C50.1796 26.536 50.2686 26.1288 50.4466 25.7992C50.6246 25.4697 50.8671 25.2045 51.1739 25.0038C51.4807 24.803 51.8292 24.6515 52.2193 24.5492C52.6133 24.4469 53.0262 24.375 53.458 24.3333C53.9656 24.2803 54.3746 24.231 54.6853 24.1856C54.9959 24.1363 55.2212 24.0644 55.3614 23.9697C55.5015 23.875 55.5716 23.7348 55.5716 23.5492V23.5151C55.5716 23.1553 55.458 22.8769 55.2307 22.6799C55.0072 22.4829 54.689 22.3844 54.2762 22.3844C53.8406 22.3844 53.494 22.481 53.2364 22.6742C52.9788 22.8636 52.8084 23.1023 52.725 23.3901L50.4864 23.2083C50.6 22.678 50.8235 22.2197 51.1568 21.8333C51.4902 21.4432 51.9201 21.1439 52.4466 20.9356C52.9769 20.7235 53.5906 20.6174 54.2875 20.6174C54.7724 20.6174 55.2364 20.6742 55.6796 20.7879C56.1265 20.9015 56.5224 21.0776 56.8671 21.3163C57.2156 21.5549 57.4902 21.8617 57.6909 22.2367C57.8917 22.6079 57.9921 23.053 57.9921 23.5719V29.4583H55.6966V28.2481H55.6284C55.4883 28.5208 55.3008 28.7613 55.0659 28.9697C54.8311 29.1742 54.5489 29.3352 54.2193 29.4526C53.8898 29.5663 53.5091 29.6231 53.0773 29.6231ZM53.7705 27.9526C54.1265 27.9526 54.4409 27.8826 54.7137 27.7424C54.9864 27.5985 55.2004 27.4053 55.3557 27.1629C55.511 26.9204 55.5887 26.6458 55.5887 26.339V25.4129C55.5129 25.4621 55.4087 25.5076 55.2762 25.5492C55.1474 25.5871 55.0015 25.6231 54.8387 25.6572C54.6758 25.6875 54.5129 25.7159 54.35 25.7424C54.1871 25.7651 54.0394 25.786 53.9068 25.8049C53.6228 25.8466 53.3746 25.9129 53.1625 26.0038C52.9504 26.0947 52.7856 26.2178 52.6682 26.3731C52.5508 26.5246 52.4921 26.714 52.4921 26.9413C52.4921 27.2708 52.6114 27.5227 52.85 27.6969C53.0924 27.8674 53.3993 27.9526 53.7705 27.9526ZM62.2424 24.4129V29.4583H59.8219V20.731H62.1287V22.2708H62.231C62.4242 21.7632 62.748 21.3617 63.2026 21.0663C63.6571 20.767 64.2083 20.6174 64.856 20.6174C65.4621 20.6174 65.9905 20.75 66.4412 21.0151C66.892 21.2803 67.2424 21.6591 67.4924 22.1515C67.7424 22.6401 67.8674 23.2235 67.8674 23.9015V29.4583H65.4469V24.3333C65.4507 23.7992 65.3143 23.3826 65.0378 23.0833C64.7613 22.7803 64.3806 22.6288 63.8958 22.6288C63.57 22.6288 63.2821 22.6988 63.0321 22.839C62.7859 22.9791 62.5927 23.1837 62.4526 23.4526C62.3162 23.7178 62.2462 24.0379 62.2424 24.4129ZM74.3691 20.731V22.5492H69.1134V20.731H74.3691ZM70.3066 18.6401H72.727V26.7765C72.727 27 72.7611 27.1742 72.8293 27.2992C72.8975 27.4204 72.9922 27.5057 73.1134 27.5549C73.2384 27.6041 73.3823 27.6288 73.5452 27.6288C73.6589 27.6288 73.7725 27.6193 73.8861 27.6004C73.9998 27.5776 74.0869 27.5606 74.1475 27.5492L74.5282 29.3504C74.407 29.3882 74.2365 29.4318 74.0168 29.481C73.7971 29.5341 73.5301 29.5663 73.2157 29.5776C72.6323 29.6004 72.121 29.5227 71.6816 29.3447C71.246 29.1666 70.907 28.8901 70.6645 28.5151C70.4221 28.1401 70.3028 27.6666 70.3066 27.0947V18.6401ZM80.5398 20.731V22.5492H75.2841V20.731H80.5398ZM76.4773 18.6401H78.8978V26.7765C78.8978 27 78.9319 27.1742 79.0001 27.2992C79.0682 27.4204 79.1629 27.5057 79.2841 27.5549C79.4091 27.6041 79.5531 27.6288 79.716 27.6288C79.8296 27.6288 79.9432 27.6193 80.0569 27.6004C80.1705 27.5776 80.2576 27.5606 80.3182 27.5492L80.6989 29.3504C80.5777 29.3882 80.4073 29.4318 80.1876 29.481C79.9679 29.5341 79.7008 29.5663 79.3864 29.5776C78.8031 29.6004 78.2917 29.5227 77.8523 29.3447C77.4167 29.1666 77.0777 28.8901 76.8353 28.5151C76.5929 28.1401 76.4735 27.6666 76.4773 27.0947V18.6401ZM85.9521 29.6288C85.0543 29.6288 84.2816 29.4469 83.6339 29.0833C82.9899 28.7159 82.4937 28.1969 82.1452 27.5265C81.7968 26.8523 81.6225 26.0549 81.6225 25.1344C81.6225 24.2367 81.7968 23.4488 82.1452 22.7708C82.4937 22.0928 82.9843 21.5644 83.6168 21.1856C84.2532 20.8068 84.9994 20.6174 85.8555 20.6174C86.4312 20.6174 86.9672 20.7102 87.4634 20.8958C87.9634 21.0776 88.399 21.3523 88.7702 21.7197C89.1452 22.0871 89.4369 22.5492 89.6452 23.106C89.8536 23.6591 89.9577 24.3068 89.9577 25.0492V25.714H82.5884V24.214H87.6793C87.6793 23.8655 87.6036 23.5568 87.4521 23.2879C87.3005 23.0189 87.0903 22.8087 86.8214 22.6572C86.5562 22.5019 86.2475 22.4242 85.8952 22.4242C85.5278 22.4242 85.2021 22.5094 84.918 22.6799C84.6377 22.8466 84.418 23.0719 84.2589 23.356C84.0998 23.6363 84.0183 23.9488 84.0146 24.2935V25.7197C84.0146 26.1515 84.0941 26.5246 84.2532 26.839C84.4161 27.1534 84.6452 27.3958 84.9407 27.5663C85.2361 27.7367 85.5865 27.8219 85.9918 27.8219C86.2608 27.8219 86.507 27.7841 86.7305 27.7083C86.954 27.6326 87.1452 27.5189 87.3043 27.3674C87.4634 27.2159 87.5846 27.0303 87.668 26.8106L89.9066 26.9583C89.793 27.4962 89.56 27.9659 89.2077 28.3674C88.8593 28.7651 88.4085 29.0757 87.8555 29.2992C87.3062 29.5189 86.6718 29.6288 85.9521 29.6288ZM91.4893 29.4583V20.731H93.8359V22.2538H93.9268C94.0859 21.7121 94.3529 21.303 94.7279 21.0265C95.1029 20.7462 95.5347 20.606 96.0234 20.606C96.1446 20.606 96.2753 20.6136 96.4154 20.6288C96.5556 20.6439 96.6787 20.6648 96.7847 20.6913V22.839C96.6711 22.8049 96.5139 22.7746 96.3131 22.7481C96.1124 22.7216 95.9287 22.7083 95.762 22.7083C95.406 22.7083 95.0878 22.786 94.8075 22.9413C94.531 23.0928 94.3113 23.3049 94.1484 23.5776C93.9893 23.8504 93.9097 24.1648 93.9097 24.5208V29.4583H91.4893ZM101.689 29.4583V17.8219H106.348C107.204 17.8219 107.918 17.9488 108.49 18.2026C109.062 18.4564 109.492 18.8087 109.78 19.2594C110.068 19.7064 110.211 20.2216 110.211 20.8049C110.211 21.2594 110.121 21.6591 109.939 22.0038C109.757 22.3447 109.507 22.625 109.189 22.8447C108.874 23.0606 108.514 23.214 108.109 23.3049V23.4185C108.552 23.4375 108.967 23.5625 109.354 23.7935C109.744 24.0246 110.06 24.3485 110.302 24.7651C110.545 25.178 110.666 25.6704 110.666 26.2424C110.666 26.8598 110.513 27.411 110.206 27.8958C109.903 28.3769 109.454 28.7576 108.859 29.0379C108.264 29.3182 107.532 29.4583 106.66 29.4583H101.689ZM104.149 27.4469H106.155C106.84 27.4469 107.34 27.3163 107.655 27.0549C107.969 26.7898 108.126 26.4375 108.126 25.9981C108.126 25.6761 108.049 25.392 107.893 25.1458C107.738 24.8996 107.516 24.7064 107.229 24.5663C106.944 24.4261 106.605 24.356 106.211 24.356H104.149V27.4469ZM104.149 22.6913H105.973C106.31 22.6913 106.609 22.6326 106.871 22.5151C107.136 22.3939 107.344 22.2235 107.496 22.0038C107.651 21.7841 107.729 21.5208 107.729 21.214C107.729 20.7935 107.579 20.4545 107.28 20.1969C106.984 19.9394 106.564 19.8106 106.018 19.8106H104.149V22.6913ZM117.77 25.7424V20.731H120.19V29.4583H117.867V27.8731H117.776C117.579 28.3844 117.251 28.7954 116.793 29.106C116.338 29.4166 115.783 29.5719 115.128 29.5719C114.545 29.5719 114.031 29.4394 113.588 29.1742C113.145 28.9091 112.798 28.5322 112.548 28.0435C112.302 27.5549 112.177 26.9697 112.173 26.2879V20.731H114.594V25.856C114.598 26.3712 114.736 26.7784 115.009 27.0776C115.281 27.3769 115.647 27.5265 116.105 27.5265C116.397 27.5265 116.67 27.4602 116.923 27.3276C117.177 27.1913 117.382 26.9905 117.537 26.7254C117.696 26.4602 117.774 26.1326 117.77 25.7424ZM122.079 29.4583V20.731H124.499V29.4583H122.079ZM123.294 19.606C122.935 19.606 122.626 19.4867 122.368 19.2481C122.115 19.0057 121.988 18.7159 121.988 18.3788C121.988 18.0454 122.115 17.7594 122.368 17.5208C122.626 17.2784 122.935 17.1572 123.294 17.1572C123.654 17.1572 123.961 17.2784 124.215 17.5208C124.472 17.7594 124.601 18.0454 124.601 18.3788C124.601 18.7159 124.472 19.0057 124.215 19.2481C123.961 19.4867 123.654 19.606 123.294 19.606ZM128.81 17.8219V29.4583H126.39V17.8219H128.81ZM133.917 29.6004C133.254 29.6004 132.654 29.4299 132.116 29.089C131.582 28.7443 131.158 28.2386 130.843 27.5719C130.533 26.9015 130.377 26.0795 130.377 25.106C130.377 24.106 130.538 23.2746 130.86 22.6117C131.182 21.9451 131.61 21.4469 132.144 21.1174C132.682 20.7841 133.271 20.6174 133.912 20.6174C134.4 20.6174 134.807 20.7007 135.133 20.8674C135.463 21.0303 135.728 21.2348 135.929 21.481C136.133 21.7235 136.288 21.9621 136.394 22.1969H136.468V17.8219H138.883V29.4583H136.497V28.0606H136.394C136.281 28.303 136.12 28.5435 135.912 28.7822C135.707 29.017 135.44 29.2121 135.11 29.3674C134.785 29.5227 134.387 29.6004 133.917 29.6004ZM134.684 27.6742C135.074 27.6742 135.404 27.5682 135.673 27.356C135.946 27.1401 136.154 26.839 136.298 26.4526C136.446 26.0663 136.519 25.6136 136.519 25.0947C136.519 24.5757 136.447 24.125 136.304 23.7424C136.16 23.3598 135.951 23.0644 135.679 22.856C135.406 22.6477 135.074 22.5435 134.684 22.5435C134.287 22.5435 133.951 22.6515 133.679 22.8674C133.406 23.0833 133.199 23.3826 133.059 23.7651C132.919 24.1477 132.849 24.5909 132.849 25.0947C132.849 25.6023 132.919 26.0511 133.059 26.4413C133.203 26.8276 133.41 27.1307 133.679 27.3504C133.951 27.5663 134.287 27.6742 134.684 27.6742ZM144.802 29.6288C143.905 29.6288 143.132 29.4469 142.484 29.0833C141.84 28.7159 141.344 28.1969 140.996 27.5265C140.647 26.8523 140.473 26.0549 140.473 25.1344C140.473 24.2367 140.647 23.4488 140.996 22.7708C141.344 22.0928 141.835 21.5644 142.467 21.1856C143.104 20.8068 143.85 20.6174 144.706 20.6174C145.282 20.6174 145.818 20.7102 146.314 20.8958C146.814 21.0776 147.249 21.3523 147.621 21.7197C147.996 22.0871 148.287 22.5492 148.496 23.106C148.704 23.6591 148.808 24.3068 148.808 25.0492V25.714H141.439V24.214H146.53C146.53 23.8655 146.454 23.5568 146.302 23.2879C146.151 23.0189 145.941 22.8087 145.672 22.6572C145.407 22.5019 145.098 22.4242 144.746 22.4242C144.378 22.4242 144.052 22.5094 143.768 22.6799C143.488 22.8466 143.268 23.0719 143.109 23.356C142.95 23.6363 142.869 23.9488 142.865 24.2935V25.7197C142.865 26.1515 142.944 26.5246 143.104 26.839C143.266 27.1534 143.496 27.3958 143.791 27.5663C144.087 27.7367 144.437 27.8219 144.842 27.8219C145.111 27.8219 145.357 27.7841 145.581 27.7083C145.804 27.6326 145.996 27.5189 146.155 27.3674C146.314 27.2159 146.435 27.0303 146.518 26.8106L148.757 26.9583C148.643 27.4962 148.41 27.9659 148.058 28.3674C147.71 28.7651 147.259 29.0757 146.706 29.2992C146.157 29.5189 145.522 29.6288 144.802 29.6288ZM150.34 29.4583V20.731H152.686V22.2538H152.777C152.936 21.7121 153.203 21.303 153.578 21.0265C153.953 20.7462 154.385 20.606 154.874 20.606C154.995 20.606 155.126 20.6136 155.266 20.6288C155.406 20.6439 155.529 20.6648 155.635 20.6913V22.839C155.521 22.8049 155.364 22.7746 155.164 22.7481C154.963 22.7216 154.779 22.7083 154.612 22.7083C154.256 22.7083 153.938 22.786 153.658 22.9413C153.381 23.0928 153.162 23.3049 152.999 23.5776C152.84 23.8504 152.76 24.1648 152.76 24.5208V29.4583H150.34Z" fill="#050810"/>
</svg>
