<svg width="156" height="33" viewBox="0 0 156 33" fill="none" xmlns="http://www.w3.org/2000/svg">
<g clip-path="url(#clip0_461_87123)">
<rect y="0.325195" width="32" height="32" rx="6" fill="white"/>
<path d="M13.4478 11.034C13.4478 8.43339 15.5559 6.3252 18.1565 6.3252H23.6501C23.6501 8.92578 21.5419 11.034 18.9413 11.034H13.4478Z" fill="#050810"/>
<path d="M13.4478 11.0342L13.4478 21.7971C13.4478 24.3977 11.3396 26.5059 8.73897 26.5059L8.73897 15.743C8.73897 13.1424 10.8472 11.0342 13.4478 11.0342Z" fill="#050810"/>
<path d="M13.2881 14.5133C13.2881 17.0258 15.3248 19.0625 17.8372 19.0625H23.2962C23.2962 16.5501 21.2595 14.5133 18.7471 14.5133H13.2881Z" fill="#050810"/>
<path d="M37.0114 22.3252V10.6888H44.7159V12.7172H39.4716V15.49H44.2045V17.5184H39.4716V22.3252H37.0114ZM48.6977 10.6888V22.3252H46.2773V10.6888H48.6977ZM53.0773 22.49C52.5205 22.49 52.0243 22.3934 51.5887 22.2002C51.1531 22.0032 50.8084 21.7135 50.5546 21.3309C50.3046 20.9445 50.1796 20.4635 50.1796 19.8877C50.1796 19.4028 50.2686 18.9956 50.4466 18.6661C50.6246 18.3366 50.8671 18.0714 51.1739 17.8706C51.4807 17.6699 51.8292 17.5184 52.2193 17.4161C52.6133 17.3138 53.0262 17.2419 53.458 17.2002C53.9656 17.1472 54.3746 17.0979 54.6853 17.0525C54.9959 17.0032 55.2212 16.9313 55.3614 16.8366C55.5015 16.7419 55.5716 16.6017 55.5716 16.4161V16.382C55.5716 16.0222 55.458 15.7438 55.2307 15.5468C55.0072 15.3498 54.689 15.2513 54.2762 15.2513C53.8406 15.2513 53.494 15.3479 53.2364 15.5411C52.9788 15.7305 52.8084 15.9691 52.725 16.257L50.4864 16.0752C50.6 15.5449 50.8235 15.0866 51.1568 14.7002C51.4902 14.31 51.9201 14.0108 52.4466 13.8025C52.9769 13.5903 53.5906 13.4843 54.2875 13.4843C54.7724 13.4843 55.2364 13.5411 55.6796 13.6547C56.1265 13.7684 56.5224 13.9445 56.8671 14.1831C57.2156 14.4218 57.4902 14.7286 57.6909 15.1036C57.8917 15.4748 57.9921 15.9199 57.9921 16.4388V22.3252H55.6966V21.115H55.6284C55.4883 21.3877 55.3008 21.6282 55.0659 21.8366C54.8311 22.0411 54.5489 22.2021 54.2193 22.3195C53.8898 22.4331 53.5091 22.49 53.0773 22.49ZM53.7705 20.8195C54.1265 20.8195 54.4409 20.7494 54.7137 20.6093C54.9864 20.4653 55.2004 20.2722 55.3557 20.0297C55.511 19.7873 55.5887 19.5127 55.5887 19.2059V18.2797C55.5129 18.329 55.4087 18.3744 55.2762 18.4161C55.1474 18.454 55.0015 18.49 54.8387 18.5241C54.6758 18.5544 54.5129 18.5828 54.35 18.6093C54.1871 18.632 54.0394 18.6528 53.9068 18.6718C53.6228 18.7135 53.3746 18.7797 53.1625 18.8706C52.9504 18.9616 52.7856 19.0847 52.6682 19.24C52.5508 19.3915 52.4921 19.5809 52.4921 19.8081C52.4921 20.1377 52.6114 20.3896 52.85 20.5638C53.0924 20.7343 53.3993 20.8195 53.7705 20.8195ZM62.2424 17.2797V22.3252H59.8219V13.5979H62.1287V15.1377H62.231C62.4242 14.6301 62.748 14.2286 63.2026 13.9331C63.6571 13.6339 64.2083 13.4843 64.856 13.4843C65.4621 13.4843 65.9905 13.6169 66.4412 13.882C66.892 14.1472 67.2424 14.526 67.4924 15.0184C67.7424 15.507 67.8674 16.0903 67.8674 16.7684V22.3252H65.4469V17.2002C65.4507 16.6661 65.3143 16.2494 65.0378 15.9502C64.7613 15.6472 64.3806 15.4956 63.8958 15.4956C63.57 15.4956 63.2821 15.5657 63.0321 15.7059C62.7859 15.846 62.5927 16.0506 62.4526 16.3195C62.3162 16.5847 62.2462 16.9047 62.2424 17.2797ZM74.3691 13.5979V15.4161H69.1134V13.5979H74.3691ZM70.3066 11.507H72.727V19.6434C72.727 19.8669 72.7611 20.0411 72.8293 20.1661C72.8975 20.2873 72.9922 20.3725 73.1134 20.4218C73.2384 20.471 73.3823 20.4956 73.5452 20.4956C73.6589 20.4956 73.7725 20.4862 73.8861 20.4672C73.9998 20.4445 74.0869 20.4275 74.1475 20.4161L74.5282 22.2172C74.407 22.2551 74.2365 22.2987 74.0168 22.3479C73.7971 22.401 73.5301 22.4331 73.2157 22.4445C72.6323 22.4672 72.121 22.3896 71.6816 22.2116C71.246 22.0335 70.907 21.757 70.6645 21.382C70.4221 21.007 70.3028 20.5335 70.3066 19.9616V11.507ZM80.5398 13.5979V15.4161H75.2841V13.5979H80.5398ZM76.4773 11.507H78.8978V19.6434C78.8978 19.8669 78.9319 20.0411 79.0001 20.1661C79.0682 20.2873 79.1629 20.3725 79.2841 20.4218C79.4091 20.471 79.5531 20.4956 79.716 20.4956C79.8296 20.4956 79.9432 20.4862 80.0569 20.4672C80.1705 20.4445 80.2576 20.4275 80.3182 20.4161L80.6989 22.2172C80.5777 22.2551 80.4073 22.2987 80.1876 22.3479C79.9679 22.401 79.7008 22.4331 79.3864 22.4445C78.8031 22.4672 78.2917 22.3896 77.8523 22.2116C77.4167 22.0335 77.0777 21.757 76.8353 21.382C76.5929 21.007 76.4735 20.5335 76.4773 19.9616V11.507ZM85.9521 22.4956C85.0543 22.4956 84.2816 22.3138 83.6339 21.9502C82.9899 21.5828 82.4937 21.0638 82.1452 20.3934C81.7968 19.7191 81.6225 18.9218 81.6225 18.0013C81.6225 17.1036 81.7968 16.3157 82.1452 15.6377C82.4937 14.9597 82.9843 14.4313 83.6168 14.0525C84.2532 13.6737 84.9994 13.4843 85.8555 13.4843C86.4312 13.4843 86.9672 13.5771 87.4634 13.7627C87.9634 13.9445 88.399 14.2191 88.7702 14.5866C89.1452 14.954 89.4369 15.4161 89.6452 15.9729C89.8536 16.526 89.9577 17.1737 89.9577 17.9161V18.5809H82.5884V17.0809H87.6793C87.6793 16.7324 87.6036 16.4237 87.4521 16.1547C87.3005 15.8858 87.0903 15.6756 86.8214 15.5241C86.5562 15.3688 86.2475 15.2911 85.8952 15.2911C85.5278 15.2911 85.2021 15.3763 84.918 15.5468C84.6377 15.7135 84.418 15.9388 84.2589 16.2229C84.0998 16.5032 84.0183 16.8157 84.0146 17.1604V18.5866C84.0146 19.0184 84.0941 19.3915 84.2532 19.7059C84.4161 20.0203 84.6452 20.2627 84.9407 20.4331C85.2361 20.6036 85.5865 20.6888 85.9918 20.6888C86.2608 20.6888 86.507 20.651 86.7305 20.5752C86.954 20.4994 87.1452 20.3858 87.3043 20.2343C87.4634 20.0828 87.5846 19.8972 87.668 19.6775L89.9066 19.8252C89.793 20.3631 89.56 20.8328 89.2077 21.2343C88.8593 21.632 88.4085 21.9426 87.8555 22.1661C87.3062 22.3858 86.6718 22.4956 85.9521 22.4956ZM91.4893 22.3252V13.5979H93.8359V15.1206H93.9268C94.0859 14.579 94.3529 14.1699 94.7279 13.8934C95.1029 13.6131 95.5347 13.4729 96.0234 13.4729C96.1446 13.4729 96.2753 13.4805 96.4154 13.4956C96.5556 13.5108 96.6787 13.5316 96.7847 13.5581V15.7059C96.6711 15.6718 96.5139 15.6415 96.3131 15.615C96.1124 15.5885 95.9287 15.5752 95.762 15.5752C95.406 15.5752 95.0878 15.6528 94.8075 15.8081C94.531 15.9597 94.3113 16.1718 94.1484 16.4445C93.9893 16.7172 93.9097 17.0316 93.9097 17.3877V22.3252H91.4893ZM101.689 22.3252V10.6888H106.348C107.204 10.6888 107.918 10.8157 108.49 11.0695C109.062 11.3233 109.492 11.6756 109.78 12.1263C110.068 12.5733 110.211 13.0885 110.211 13.6718C110.211 14.1263 110.121 14.526 109.939 14.8706C109.757 15.2116 109.507 15.4919 109.189 15.7116C108.874 15.9275 108.514 16.0809 108.109 16.1718V16.2854C108.552 16.3044 108.967 16.4294 109.354 16.6604C109.744 16.8915 110.06 17.2153 110.302 17.632C110.545 18.0449 110.666 18.5373 110.666 19.1093C110.666 19.7267 110.513 20.2778 110.206 20.7627C109.903 21.2438 109.454 21.6244 108.859 21.9047C108.264 22.185 107.532 22.3252 106.66 22.3252H101.689ZM104.149 20.3138H106.155C106.84 20.3138 107.34 20.1831 107.655 19.9218C107.969 19.6566 108.126 19.3044 108.126 18.865C108.126 18.543 108.049 18.2589 107.893 18.0127C107.738 17.7665 107.516 17.5733 107.229 17.4331C106.944 17.293 106.605 17.2229 106.211 17.2229H104.149V20.3138ZM104.149 15.5581H105.973C106.31 15.5581 106.609 15.4994 106.871 15.382C107.136 15.2608 107.344 15.0903 107.496 14.8706C107.651 14.651 107.729 14.3877 107.729 14.0809C107.729 13.6604 107.579 13.3214 107.28 13.0638C106.984 12.8063 106.564 12.6775 106.018 12.6775H104.149V15.5581ZM117.77 18.6093V13.5979H120.19V22.3252H117.867V20.74H117.776C117.579 21.2513 117.251 21.6623 116.793 21.9729C116.338 22.2835 115.783 22.4388 115.128 22.4388C114.545 22.4388 114.031 22.3063 113.588 22.0411C113.145 21.776 112.798 21.3991 112.548 20.9104C112.302 20.4218 112.177 19.8366 112.173 19.1547V13.5979H114.594V18.7229C114.598 19.2381 114.736 19.6453 115.009 19.9445C115.281 20.2438 115.647 20.3934 116.105 20.3934C116.397 20.3934 116.67 20.3271 116.923 20.1945C117.177 20.0581 117.382 19.8574 117.537 19.5922C117.696 19.3271 117.774 18.9994 117.77 18.6093ZM122.079 22.3252V13.5979H124.499V22.3252H122.079ZM123.294 12.4729C122.935 12.4729 122.626 12.3536 122.368 12.115C122.115 11.8725 121.988 11.5828 121.988 11.2456C121.988 10.9123 122.115 10.6263 122.368 10.3877C122.626 10.1453 122.935 10.0241 123.294 10.0241C123.654 10.0241 123.961 10.1453 124.215 10.3877C124.472 10.6263 124.601 10.9123 124.601 11.2456C124.601 11.5828 124.472 11.8725 124.215 12.115C123.961 12.3536 123.654 12.4729 123.294 12.4729ZM128.81 10.6888V22.3252H126.39V10.6888H128.81ZM133.917 22.4672C133.254 22.4672 132.654 22.2968 132.116 21.9559C131.582 21.6112 131.158 21.1055 130.843 20.4388C130.533 19.7684 130.377 18.9464 130.377 17.9729C130.377 16.9729 130.538 16.1415 130.86 15.4786C131.182 14.8119 131.61 14.3138 132.144 13.9843C132.682 13.651 133.271 13.4843 133.912 13.4843C134.4 13.4843 134.807 13.5676 135.133 13.7343C135.463 13.8972 135.728 14.1017 135.929 14.3479C136.133 14.5903 136.288 14.829 136.394 15.0638H136.468V10.6888H138.883V22.3252H136.497V20.9275H136.394C136.281 21.1699 136.12 21.4104 135.912 21.6491C135.707 21.8839 135.44 22.079 135.11 22.2343C134.785 22.3896 134.387 22.4672 133.917 22.4672ZM134.684 20.5411C135.074 20.5411 135.404 20.435 135.673 20.2229C135.946 20.007 136.154 19.7059 136.298 19.3195C136.446 18.9331 136.519 18.4805 136.519 17.9616C136.519 17.4426 136.447 16.9919 136.304 16.6093C136.16 16.2267 135.951 15.9313 135.679 15.7229C135.406 15.5146 135.074 15.4104 134.684 15.4104C134.287 15.4104 133.951 15.5184 133.679 15.7343C133.406 15.9502 133.199 16.2494 133.059 16.632C132.919 17.0146 132.849 17.4578 132.849 17.9616C132.849 18.4691 132.919 18.918 133.059 19.3081C133.203 19.6945 133.41 19.9975 133.679 20.2172C133.951 20.4331 134.287 20.5411 134.684 20.5411ZM144.802 22.4956C143.905 22.4956 143.132 22.3138 142.484 21.9502C141.84 21.5828 141.344 21.0638 140.996 20.3934C140.647 19.7191 140.473 18.9218 140.473 18.0013C140.473 17.1036 140.647 16.3157 140.996 15.6377C141.344 14.9597 141.835 14.4313 142.467 14.0525C143.104 13.6737 143.85 13.4843 144.706 13.4843C145.282 13.4843 145.818 13.5771 146.314 13.7627C146.814 13.9445 147.249 14.2191 147.621 14.5866C147.996 14.954 148.287 15.4161 148.496 15.9729C148.704 16.526 148.808 17.1737 148.808 17.9161V18.5809H141.439V17.0809H146.53C146.53 16.7324 146.454 16.4237 146.302 16.1547C146.151 15.8858 145.941 15.6756 145.672 15.5241C145.407 15.3688 145.098 15.2911 144.746 15.2911C144.378 15.2911 144.052 15.3763 143.768 15.5468C143.488 15.7135 143.268 15.9388 143.109 16.2229C142.95 16.5032 142.869 16.8157 142.865 17.1604V18.5866C142.865 19.0184 142.944 19.3915 143.104 19.7059C143.266 20.0203 143.496 20.2627 143.791 20.4331C144.087 20.6036 144.437 20.6888 144.842 20.6888C145.111 20.6888 145.357 20.651 145.581 20.5752C145.804 20.4994 145.996 20.3858 146.155 20.2343C146.314 20.0828 146.435 19.8972 146.518 19.6775L148.757 19.8252C148.643 20.3631 148.41 20.8328 148.058 21.2343C147.71 21.632 147.259 21.9426 146.706 22.1661C146.157 22.3858 145.522 22.4956 144.802 22.4956ZM150.34 22.3252V13.5979H152.686V15.1206H152.777C152.936 14.579 153.203 14.1699 153.578 13.8934C153.953 13.6131 154.385 13.4729 154.874 13.4729C154.995 13.4729 155.126 13.4805 155.266 13.4956C155.406 13.5108 155.529 13.5316 155.635 13.5581V15.7059C155.521 15.6718 155.364 15.6415 155.164 15.615C154.963 15.5885 154.779 15.5752 154.612 15.5752C154.256 15.5752 153.938 15.6528 153.658 15.8081C153.381 15.9597 153.162 16.1718 152.999 16.4445C152.84 16.7172 152.76 17.0316 152.76 17.3877V22.3252H150.34Z" fill="white"/>
</g>
<defs>
<clipPath id="clip0_461_87123">
<rect width="156" height="32" fill="white" transform="translate(0 0.325195)"/>
</clipPath>
</defs>
</svg>
