<svg width="314" height="144" viewBox="0 0 314 144" fill="none" xmlns="http://www.w3.org/2000/svg">
<g clip-path="url(#clip0_461_72818)">
<g clip-path="url(#clip1_461_72818)">
<rect x="36.0625" y="52.5422" width="241.241" height="39.7772" rx="8.37414" fill="white"/>
<g filter="url(#filter0_d_461_72818)">
<rect x="39.5518" y="56.0315" width="32.7987" height="32.7987" rx="6.97845" fill="#2E66EF"/>
<path d="M51.5908 72.6343H60.7161" stroke="#FFFBFB" stroke-width="0.97771" stroke-linecap="round" stroke-linejoin="round"/>
<path d="M56.1558 68.072V77.1973" stroke="#FFFBFB" stroke-width="0.97771" stroke-linecap="round" stroke-linejoin="round"/>
</g>
<g filter="url(#filter1_d_461_72818)">
<rect x="79.8447" y="56.0315" width="32.7987" height="32.7987" rx="6.97845" fill="white"/>
<g clip-path="url(#clip2_461_72818)">
<path d="M98.2436 66.3831H92.4864C92.1471 66.3831 91.8217 66.5178 91.5818 66.7578C91.3418 66.9977 91.207 67.3231 91.207 67.6624V77.8975C91.207 78.2368 91.3418 78.5622 91.5818 78.8022C91.8217 79.0421 92.1471 79.1769 92.4864 79.1769H100.163C100.502 79.1769 100.827 79.0421 101.067 78.8022C101.307 78.5622 101.442 78.2368 101.442 77.8975V69.5815L98.2436 66.3831Z" stroke="#050810" stroke-width="0.976983" stroke-linecap="round" stroke-linejoin="round"/>
<path d="M97.6025 66.3831V68.9418C97.6025 69.2811 97.7373 69.6066 97.9773 69.8465C98.2172 70.0864 98.5426 70.2212 98.8819 70.2212H101.441" stroke="#050810" stroke-width="0.976983" stroke-linecap="round" stroke-linejoin="round"/>
</g>
</g>
<g filter="url(#filter2_d_461_72818)">
<rect x="120.137" y="56.0315" width="32.7987" height="32.7987" rx="6.97845" fill="white"/>
<path d="M141.765 66.335H131.476C131.121 66.335 130.833 66.6229 130.833 66.978V70.1932C130.833 70.5484 131.121 70.8363 131.476 70.8363H141.765C142.12 70.8363 142.408 70.5484 142.408 70.1932V66.978C142.408 66.6229 142.12 66.335 141.765 66.335Z" stroke="#050810" stroke-width="0.964569" stroke-linecap="round" stroke-linejoin="round"/>
<path d="M134.691 73.4084H131.476C131.121 73.4084 130.833 73.6963 130.833 74.0515V77.2667C130.833 77.6219 131.121 77.9098 131.476 77.9098H134.691C135.046 77.9098 135.334 77.6219 135.334 77.2667V74.0515C135.334 73.6963 135.046 73.4084 134.691 73.4084Z" stroke="#050810" stroke-width="0.964569" stroke-linecap="round" stroke-linejoin="round"/>
<path d="M141.764 73.4084H138.549C138.194 73.4084 137.906 73.6963 137.906 74.0515V77.2667C137.906 77.6219 138.194 77.9098 138.549 77.9098H141.764C142.119 77.9098 142.407 77.6219 142.407 77.2667V74.0515C142.407 73.6963 142.119 73.4084 141.764 73.4084Z" stroke="#050810" stroke-width="0.964569" stroke-linecap="round" stroke-linejoin="round"/>
</g>
<g filter="url(#filter3_d_461_72818)">
<rect x="160.43" y="56.0315" width="32.7987" height="32.7987" rx="6.97845" fill="white"/>
<g clip-path="url(#clip3_461_72818)">
<path d="M176.868 69.5497C180.065 69.5497 182.656 68.686 182.656 67.6205C182.656 66.5551 180.065 65.6914 176.868 65.6914C173.672 65.6914 171.081 66.5551 171.081 67.6205C171.081 68.686 173.672 69.5497 176.868 69.5497Z" stroke="#050810" stroke-width="0.964569" stroke-linecap="round" stroke-linejoin="round"/>
<path d="M171.081 67.6208V76.6235C171.081 77.1351 171.691 77.6258 172.776 77.9876C173.862 78.3494 175.334 78.5526 176.868 78.5526C178.403 78.5526 179.875 78.3494 180.961 77.9876C182.046 77.6258 182.656 77.1351 182.656 76.6235V67.6208" stroke="#050810" stroke-width="0.964569" stroke-linecap="round" stroke-linejoin="round"/>
<path d="M171.081 72.1223C171.081 72.634 171.691 73.1246 172.776 73.4864C173.862 73.8482 175.334 74.0515 176.868 74.0515C178.403 74.0515 179.875 73.8482 180.961 73.4864C182.046 73.1246 182.656 72.634 182.656 72.1223" stroke="#050810" stroke-width="0.964569" stroke-linecap="round" stroke-linejoin="round"/>
</g>
</g>
<g filter="url(#filter4_d_461_72818)">
<rect x="200.723" y="56.0315" width="32.7987" height="32.7987" rx="6.97845" fill="white"/>
<path d="M222.913 71.9968C223.308 71.8433 223.505 71.7666 223.561 71.6581C223.609 71.5641 223.607 71.4525 223.557 71.3598C223.499 71.2528 223.299 71.1813 222.901 71.0382L212.736 67.3894C212.41 67.2723 212.247 67.2138 212.141 67.2507C212.048 67.2828 211.975 67.3556 211.943 67.4483C211.906 67.5549 211.965 67.7179 212.082 68.044L215.731 78.2085C215.874 78.607 215.945 78.8063 216.052 78.8645C216.145 78.9149 216.256 78.9164 216.35 78.8684C216.459 78.813 216.536 78.6157 216.689 78.221L218.35 73.9495C218.38 73.8721 218.395 73.8335 218.419 73.8009C218.439 73.7721 218.464 73.7469 218.493 73.7263C218.526 73.7031 218.564 73.688 218.642 73.658L222.913 71.9968Z" stroke="#050810" stroke-width="1.06615" stroke-linecap="round" stroke-linejoin="round"/>
</g>
<g filter="url(#filter5_d_461_72818)">
<rect x="241.016" y="56.0312" width="32.7987" height="32.7987" rx="6.97845" fill="white"/>
<g clip-path="url(#clip4_461_72818)">
<path d="M261.256 72.1399V68.9415C261.256 68.6022 261.121 68.2768 260.881 68.0368C260.641 67.7969 260.315 67.6621 259.976 67.6621C259.637 67.6621 259.311 67.7969 259.072 68.0368C258.832 68.2768 258.697 68.6022 258.697 68.9415" stroke="#050810" stroke-width="1.06615" stroke-linecap="round" stroke-linejoin="round"/>
<path d="M258.697 71.5001V67.662C258.697 67.3226 258.562 66.9972 258.322 66.7573C258.082 66.5174 257.757 66.3826 257.418 66.3826C257.078 66.3826 256.753 66.5174 256.513 66.7573C256.273 66.9972 256.138 67.3226 256.138 67.662V68.9413" stroke="#050810" stroke-width="1.06615" stroke-linecap="round" stroke-linejoin="round"/>
<path d="M256.138 71.8201V68.9415C256.138 68.6022 256.003 68.2768 255.763 68.0368C255.523 67.7969 255.198 67.6621 254.858 67.6621C254.519 67.6621 254.194 67.7969 253.954 68.0368C253.714 68.2768 253.579 68.6022 253.579 68.9415V74.059" stroke="#050810" stroke-width="1.06615" stroke-linecap="round" stroke-linejoin="round"/>
<path d="M261.257 70.2208C261.257 69.8815 261.392 69.5561 261.632 69.3161C261.872 69.0762 262.197 68.9414 262.537 68.9414C262.876 68.9414 263.201 69.0762 263.441 69.3161C263.681 69.5561 263.816 69.8815 263.816 70.2208V74.0589C263.816 75.4162 263.277 76.7179 262.317 77.6776C261.357 78.6373 260.056 79.1765 258.698 79.1765H257.419C255.628 79.1765 254.54 78.6263 253.587 77.6796L251.284 75.3767C251.064 75.1329 250.946 74.8139 250.955 74.4856C250.964 74.1573 251.098 73.8449 251.331 73.613C251.564 73.3812 251.876 73.2478 252.205 73.2403C252.533 73.2328 252.852 73.3518 253.095 73.5728L254.221 74.6986" stroke="#050810" stroke-width="1.06615" stroke-linecap="round" stroke-linejoin="round"/>
</g>
</g>
</g>
<path d="M66.1108 87.6676C65.9545 87.6114 65.7958 87.5544 65.6619 87.5196C65.5348 87.4866 65.2895 87.4319 65.0265 87.5229C64.7249 87.6274 64.488 87.8643 64.3835 88.1659C64.2925 88.4289 64.3472 88.6742 64.3802 88.8013C64.415 88.9352 64.472 89.0939 64.5282 89.2502L68.5035 100.324C68.5733 100.519 68.6402 100.705 68.7062 100.849C68.762 100.97 68.8889 101.236 69.1648 101.386C69.4665 101.55 69.8297 101.555 70.1356 101.399C70.4154 101.256 70.5492 100.994 70.6082 100.874C70.678 100.732 70.7497 100.547 70.8246 100.355L72.614 95.7535L77.2154 93.964C77.408 93.8892 77.5927 93.8174 77.7345 93.7476C77.8544 93.6886 78.1166 93.5548 78.2594 93.2751C78.4156 92.9692 78.4108 92.6059 78.2467 92.3043C78.0965 92.0284 77.831 91.9015 77.7096 91.8457C77.5659 91.7796 77.3794 91.7127 77.1849 91.6429L66.1108 87.6676Z" fill="#050810" stroke="white" stroke-width="1.24902" stroke-linecap="round" stroke-linejoin="round"/>
<g filter="url(#filter6_bdi_461_72818)">
<rect x="76.0332" y="99.1726" width="54.6537" height="20.6615" rx="6.66146" fill="#050810"/>
<path d="M85.4037 113.503V106.059H86.5028L89.3006 109.936H88.751L91.4989 106.059H92.598V113.503H91.429V107.448L91.8686 107.568L89.0608 111.405H88.9409L86.193 107.568L86.5827 107.448V113.503H85.4037ZM94.0272 113.503V108.098H95.1563V113.503H94.0272ZM94.0272 107.358V106.059H95.1563V107.358H94.0272ZM99.0444 113.623C98.5048 113.623 98.0252 113.5 97.6055 113.254C97.1925 113 96.8628 112.661 96.6163 112.234C96.3765 111.808 96.2566 111.325 96.2566 110.786C96.2566 110.253 96.3765 109.773 96.6163 109.347C96.8561 108.92 97.1859 108.587 97.6055 108.347C98.0252 108.101 98.5048 107.978 99.0444 107.978C99.4108 107.978 99.7539 108.044 100.074 108.178C100.393 108.304 100.67 108.481 100.903 108.707C101.143 108.934 101.319 109.197 101.433 109.497L100.443 109.956C100.33 109.676 100.147 109.453 99.8937 109.287C99.6473 109.114 99.3642 109.027 99.0444 109.027C98.738 109.027 98.4615 109.104 98.2151 109.257C97.9752 109.403 97.7854 109.613 97.6455 109.886C97.5056 110.153 97.4357 110.456 97.4357 110.796C97.4357 111.135 97.5056 111.442 97.6455 111.715C97.7854 111.981 97.9752 112.191 98.2151 112.344C98.4615 112.498 98.738 112.574 99.0444 112.574C99.3708 112.574 99.6539 112.491 99.8937 112.324C100.14 112.151 100.323 111.921 100.443 111.635L101.433 112.105C101.326 112.391 101.153 112.651 100.913 112.884C100.68 113.11 100.403 113.29 100.084 113.423C99.7638 113.557 99.4174 113.623 99.0444 113.623ZM102.536 113.503V105.939H103.665V109.157L103.485 109.017C103.619 108.677 103.832 108.421 104.125 108.248C104.418 108.068 104.758 107.978 105.144 107.978C105.544 107.978 105.897 108.064 106.203 108.238C106.51 108.411 106.75 108.651 106.923 108.957C107.096 109.263 107.183 109.613 107.183 110.006V113.503H106.063V110.316C106.063 110.043 106.01 109.813 105.904 109.626C105.804 109.433 105.664 109.287 105.484 109.187C105.304 109.08 105.097 109.027 104.864 109.027C104.638 109.027 104.431 109.08 104.245 109.187C104.065 109.287 103.922 109.433 103.815 109.626C103.715 109.82 103.665 110.049 103.665 110.316V113.503H102.536ZM110.01 113.623C109.643 113.623 109.32 113.56 109.04 113.433C108.767 113.3 108.554 113.12 108.401 112.894C108.248 112.661 108.171 112.388 108.171 112.075C108.171 111.781 108.234 111.518 108.361 111.285C108.494 111.052 108.697 110.855 108.97 110.696C109.244 110.536 109.587 110.422 110 110.356L111.878 110.046V110.935L110.22 111.225C109.92 111.278 109.7 111.375 109.56 111.515C109.42 111.648 109.35 111.821 109.35 112.035C109.35 112.241 109.427 112.411 109.58 112.544C109.74 112.671 109.943 112.734 110.19 112.734C110.496 112.734 110.762 112.667 110.989 112.534C111.222 112.401 111.402 112.224 111.528 112.005C111.655 111.778 111.718 111.528 111.718 111.255V109.866C111.718 109.6 111.618 109.383 111.419 109.217C111.225 109.044 110.966 108.957 110.639 108.957C110.339 108.957 110.076 109.037 109.85 109.197C109.63 109.35 109.467 109.55 109.36 109.796L108.421 109.327C108.521 109.06 108.684 108.827 108.911 108.627C109.137 108.421 109.4 108.261 109.7 108.148C110.006 108.034 110.329 107.978 110.669 107.978C111.095 107.978 111.472 108.058 111.798 108.218C112.131 108.377 112.388 108.601 112.568 108.887C112.754 109.167 112.847 109.493 112.847 109.866V113.503H111.768V112.524L111.998 112.554C111.872 112.774 111.708 112.964 111.508 113.124C111.315 113.284 111.092 113.407 110.839 113.493C110.593 113.58 110.316 113.623 110.01 113.623ZM116.706 113.623C116.166 113.623 115.686 113.5 115.267 113.254C114.854 113 114.531 112.661 114.298 112.234C114.064 111.801 113.948 111.318 113.948 110.786C113.948 110.239 114.064 109.756 114.298 109.337C114.537 108.917 114.857 108.587 115.257 108.347C115.657 108.101 116.109 107.978 116.616 107.978C117.022 107.978 117.385 108.048 117.705 108.188C118.025 108.327 118.294 108.521 118.514 108.767C118.734 109.007 118.901 109.283 119.014 109.596C119.134 109.91 119.194 110.243 119.194 110.596C119.194 110.682 119.19 110.772 119.184 110.865C119.177 110.959 119.164 111.045 119.144 111.125H114.837V110.226H118.504L117.965 110.636C118.031 110.309 118.008 110.019 117.895 109.766C117.788 109.507 117.622 109.303 117.395 109.157C117.175 109.004 116.916 108.927 116.616 108.927C116.316 108.927 116.05 109.004 115.816 109.157C115.583 109.303 115.403 109.517 115.277 109.796C115.15 110.069 115.1 110.403 115.127 110.796C115.094 111.162 115.144 111.482 115.277 111.755C115.417 112.028 115.61 112.241 115.856 112.394C116.109 112.547 116.396 112.624 116.716 112.624C117.042 112.624 117.319 112.551 117.545 112.404C117.778 112.258 117.961 112.068 118.095 111.835L119.014 112.284C118.907 112.538 118.741 112.767 118.514 112.974C118.294 113.174 118.028 113.334 117.715 113.453C117.408 113.567 117.072 113.623 116.706 113.623ZM120.296 113.503V105.939H121.425V113.503H120.296Z" fill="white"/>
</g>
</g>
<defs>
<filter id="filter0_d_461_72818" x="14.5713" y="34.3817" width="82.7598" height="82.7598" filterUnits="userSpaceOnUse" color-interpolation-filters="sRGB">
<feFlood flood-opacity="0" result="BackgroundImageFix"/>
<feColorMatrix in="SourceAlpha" type="matrix" values="0 0 0 0 0 0 0 0 0 0 0 0 0 0 0 0 0 0 127 0" result="hardAlpha"/>
<feOffset dy="3.33073"/>
<feGaussianBlur stdDeviation="12.4902"/>
<feComposite in2="hardAlpha" operator="out"/>
<feColorMatrix type="matrix" values="0 0 0 0 0.180392 0 0 0 0 0.4 0 0 0 0 0.937255 0 0 0 0.4 0"/>
<feBlend mode="normal" in2="BackgroundImageFix" result="effect1_dropShadow_461_72818"/>
<feBlend mode="normal" in="SourceGraphic" in2="effect1_dropShadow_461_72818" result="shape"/>
</filter>
<filter id="filter1_d_461_72818" x="54.8642" y="34.3817" width="82.7598" height="82.7598" filterUnits="userSpaceOnUse" color-interpolation-filters="sRGB">
<feFlood flood-opacity="0" result="BackgroundImageFix"/>
<feColorMatrix in="SourceAlpha" type="matrix" values="0 0 0 0 0 0 0 0 0 0 0 0 0 0 0 0 0 0 127 0" result="hardAlpha"/>
<feOffset dy="3.33073"/>
<feGaussianBlur stdDeviation="12.4902"/>
<feComposite in2="hardAlpha" operator="out"/>
<feColorMatrix type="matrix" values="0 0 0 0 0 0 0 0 0 0 0 0 0 0 0 0 0 0 0.08 0"/>
<feBlend mode="normal" in2="BackgroundImageFix" result="effect1_dropShadow_461_72818"/>
<feBlend mode="normal" in="SourceGraphic" in2="effect1_dropShadow_461_72818" result="shape"/>
</filter>
<filter id="filter2_d_461_72818" x="95.1567" y="34.3817" width="82.7598" height="82.7598" filterUnits="userSpaceOnUse" color-interpolation-filters="sRGB">
<feFlood flood-opacity="0" result="BackgroundImageFix"/>
<feColorMatrix in="SourceAlpha" type="matrix" values="0 0 0 0 0 0 0 0 0 0 0 0 0 0 0 0 0 0 127 0" result="hardAlpha"/>
<feOffset dy="3.33073"/>
<feGaussianBlur stdDeviation="12.4902"/>
<feComposite in2="hardAlpha" operator="out"/>
<feColorMatrix type="matrix" values="0 0 0 0 0 0 0 0 0 0 0 0 0 0 0 0 0 0 0.08 0"/>
<feBlend mode="normal" in2="BackgroundImageFix" result="effect1_dropShadow_461_72818"/>
<feBlend mode="normal" in="SourceGraphic" in2="effect1_dropShadow_461_72818" result="shape"/>
</filter>
<filter id="filter3_d_461_72818" x="135.45" y="34.3817" width="82.7598" height="82.7598" filterUnits="userSpaceOnUse" color-interpolation-filters="sRGB">
<feFlood flood-opacity="0" result="BackgroundImageFix"/>
<feColorMatrix in="SourceAlpha" type="matrix" values="0 0 0 0 0 0 0 0 0 0 0 0 0 0 0 0 0 0 127 0" result="hardAlpha"/>
<feOffset dy="3.33073"/>
<feGaussianBlur stdDeviation="12.4902"/>
<feComposite in2="hardAlpha" operator="out"/>
<feColorMatrix type="matrix" values="0 0 0 0 0 0 0 0 0 0 0 0 0 0 0 0 0 0 0.08 0"/>
<feBlend mode="normal" in2="BackgroundImageFix" result="effect1_dropShadow_461_72818"/>
<feBlend mode="normal" in="SourceGraphic" in2="effect1_dropShadow_461_72818" result="shape"/>
</filter>
<filter id="filter4_d_461_72818" x="175.743" y="34.3817" width="82.7598" height="82.7598" filterUnits="userSpaceOnUse" color-interpolation-filters="sRGB">
<feFlood flood-opacity="0" result="BackgroundImageFix"/>
<feColorMatrix in="SourceAlpha" type="matrix" values="0 0 0 0 0 0 0 0 0 0 0 0 0 0 0 0 0 0 127 0" result="hardAlpha"/>
<feOffset dy="3.33073"/>
<feGaussianBlur stdDeviation="12.4902"/>
<feComposite in2="hardAlpha" operator="out"/>
<feColorMatrix type="matrix" values="0 0 0 0 0 0 0 0 0 0 0 0 0 0 0 0 0 0 0.08 0"/>
<feBlend mode="normal" in2="BackgroundImageFix" result="effect1_dropShadow_461_72818"/>
<feBlend mode="normal" in="SourceGraphic" in2="effect1_dropShadow_461_72818" result="shape"/>
</filter>
<filter id="filter5_d_461_72818" x="216.036" y="34.3815" width="82.7598" height="82.7598" filterUnits="userSpaceOnUse" color-interpolation-filters="sRGB">
<feFlood flood-opacity="0" result="BackgroundImageFix"/>
<feColorMatrix in="SourceAlpha" type="matrix" values="0 0 0 0 0 0 0 0 0 0 0 0 0 0 0 0 0 0 127 0" result="hardAlpha"/>
<feOffset dy="3.33073"/>
<feGaussianBlur stdDeviation="12.4902"/>
<feComposite in2="hardAlpha" operator="out"/>
<feColorMatrix type="matrix" values="0 0 0 0 0 0 0 0 0 0 0 0 0 0 0 0 0 0 0.08 0"/>
<feBlend mode="normal" in2="BackgroundImageFix" result="effect1_dropShadow_461_72818"/>
<feBlend mode="normal" in="SourceGraphic" in2="effect1_dropShadow_461_72818" result="shape"/>
</filter>
<filter id="filter6_bdi_461_72818" x="66.041" y="89.1804" width="74.6382" height="63.9609" filterUnits="userSpaceOnUse" color-interpolation-filters="sRGB">
<feFlood flood-opacity="0" result="BackgroundImageFix"/>
<feGaussianBlur in="BackgroundImageFix" stdDeviation="4.9961"/>
<feComposite in2="SourceAlpha" operator="in" result="effect1_backgroundBlur_461_72818"/>
<feColorMatrix in="SourceAlpha" type="matrix" values="0 0 0 0 0 0 0 0 0 0 0 0 0 0 0 0 0 0 127 0" result="hardAlpha"/>
<feMorphology radius="13.3229" operator="erode" in="SourceAlpha" result="effect2_dropShadow_461_72818"/>
<feOffset dy="26.6458"/>
<feGaussianBlur stdDeviation="9.99219"/>
<feComposite in2="hardAlpha" operator="out"/>
<feColorMatrix type="matrix" values="0 0 0 0 0 0 0 0 0 0 0 0 0 0 0 0 0 0 0.4 0"/>
<feBlend mode="multiply" in2="effect1_backgroundBlur_461_72818" result="effect2_dropShadow_461_72818"/>
<feBlend mode="normal" in="SourceGraphic" in2="effect2_dropShadow_461_72818" result="shape"/>
<feColorMatrix in="SourceAlpha" type="matrix" values="0 0 0 0 0 0 0 0 0 0 0 0 0 0 0 0 0 0 127 0" result="hardAlpha"/>
<feOffset/>
<feGaussianBlur stdDeviation="3.33073"/>
<feComposite in2="hardAlpha" operator="arithmetic" k2="-1" k3="1"/>
<feColorMatrix type="matrix" values="0 0 0 0 0.972549 0 0 0 0 0.972549 0 0 0 0 0.972549 0 0 0 0.25 0"/>
<feBlend mode="normal" in2="shape" result="effect3_innerShadow_461_72818"/>
</filter>
<clipPath id="clip0_461_72818">
<rect width="313.089" height="142.389" fill="white" transform="translate(0.258301 0.915771)"/>
</clipPath>
<clipPath id="clip1_461_72818">
<rect x="36.0625" y="52.5422" width="241.241" height="39.7772" rx="8.37414" fill="white"/>
</clipPath>
<clipPath id="clip2_461_72818">
<rect width="15.3526" height="15.3526" fill="white" transform="translate(88.6484 65.1035)"/>
</clipPath>
<clipPath id="clip3_461_72818">
<rect width="15.4331" height="15.4331" fill="white" transform="translate(169.15 64.4055)"/>
</clipPath>
<clipPath id="clip4_461_72818">
<rect width="15.3526" height="15.3526" fill="white" transform="translate(249.742 65.1033)"/>
</clipPath>
</defs>
</svg>
