<svg width="334" height="312" viewBox="0 0 334 312" fill="none" xmlns="http://www.w3.org/2000/svg">
<g filter="url(#filter0_b_461_72878)">
<path d="M204.356 218.936C204.394 218.867 204.41 218.789 204.403 218.711C204.395 218.633 204.365 218.559 204.315 218.499C204.265 218.439 204.198 218.395 204.123 218.373C204.048 218.352 203.968 218.353 203.894 218.377L190.865 222.293C190.786 222.316 190.716 222.365 190.666 222.43C190.616 222.496 190.587 222.576 190.585 222.659C190.583 222.742 190.607 222.823 190.653 222.891C190.7 222.96 190.767 223.012 190.844 223.04L195.531 224.732C195.795 224.827 196.03 224.992 196.21 225.208C196.389 225.425 196.508 225.686 196.552 225.963L197.338 230.885C197.351 230.966 197.39 231.042 197.448 231.1C197.507 231.159 197.582 231.197 197.664 231.211C197.746 231.224 197.829 231.211 197.903 231.174C197.977 231.137 198.038 231.077 198.076 231.004L204.356 218.936Z" fill="#050810"/>
<path d="M204.356 218.936C204.394 218.867 204.41 218.789 204.403 218.711C204.395 218.633 204.365 218.559 204.315 218.499C204.265 218.439 204.198 218.395 204.123 218.373C204.048 218.352 203.968 218.353 203.894 218.377L190.865 222.293C190.786 222.316 190.716 222.365 190.666 222.43C190.616 222.496 190.587 222.576 190.585 222.659C190.583 222.742 190.607 222.823 190.653 222.891C190.7 222.96 190.767 223.012 190.844 223.04L195.531 224.732C195.795 224.827 196.03 224.992 196.21 225.208C196.389 225.425 196.508 225.686 196.552 225.963L197.338 230.885C197.351 230.966 197.39 231.042 197.448 231.1C197.507 231.159 197.582 231.197 197.664 231.211C197.746 231.224 197.829 231.211 197.903 231.174C197.977 231.137 198.038 231.077 198.076 231.004L204.356 218.936Z" stroke="url(#paint0_linear_461_72878)" stroke-width="0.885774" stroke-linecap="round" stroke-linejoin="round"/>
</g>
<rect x="194.573" y="115.834" width="208.616" height="92.4718" transform="rotate(-3.58801 194.573 115.834)" stroke="#BCBCBC" stroke-opacity="0.4" stroke-width="0.885774" stroke-linecap="round" stroke-dasharray="3.54 3.54"/>
<rect x="206.068" y="133.644" width="188.643" height="11.0966" rx="5.54831" transform="rotate(-3.58801 206.068 133.644)" fill="#E3E5E8"/>
<rect x="207.04" y="149.149" width="102.829" height="11.0966" rx="5.54831" transform="rotate(-3.58801 207.04 149.149)" fill="#E3E5E8"/>
<rect x="208.737" y="176.224" width="38.0883" height="12.4008" rx="6.20042" transform="rotate(-3.58801 208.737 176.224)" fill="#050810"/>
<rect x="208.071" y="165.615" width="60.2326" height="5.31464" rx="2.65732" transform="rotate(-3.58801 208.071 165.615)" fill="#E3E5E8"/>
<rect x="272.607" y="161.568" width="48.7176" height="5.31464" rx="2.65732" transform="rotate(-3.58801 272.607 161.568)" fill="#E3E5E8"/>
<rect x="325.649" y="158.243" width="30.1163" height="5.31464" rx="2.65732" transform="rotate(-3.58801 325.649 158.243)" fill="black" fill-opacity="0.1"/>
<rect x="191.436" y="113.066" width="5.31464" height="5.31464" transform="rotate(-3.58801 191.436 113.066)" fill="#DBDBDB"/>
<rect x="191.436" y="113.066" width="5.31464" height="5.31464" transform="rotate(-3.58801 191.436 113.066)" stroke="#B2B2B2" stroke-width="0.885774"/>
<rect x="197.224" y="205.357" width="5.31464" height="5.31464" transform="rotate(-3.58801 197.224 205.357)" fill="#DBDBDB"/>
<rect x="197.224" y="205.357" width="5.31464" height="5.31464" transform="rotate(-3.58801 197.224 205.357)" stroke="#B2B2B2" stroke-width="0.885774"/>
<g filter="url(#filter1_b_461_72878)">
<path d="M161.618 134.34C161.581 134.272 161.565 134.195 161.572 134.118C161.579 134.04 161.609 133.967 161.659 133.908C161.708 133.848 161.774 133.805 161.849 133.783C161.923 133.762 162.002 133.763 162.075 133.787L174.967 137.661C175.046 137.685 175.115 137.733 175.165 137.798C175.214 137.863 175.242 137.942 175.245 138.024C175.247 138.106 175.223 138.186 175.177 138.254C175.131 138.321 175.065 138.373 174.988 138.401L170.351 140.075C170.089 140.169 169.857 140.332 169.679 140.546C169.501 140.761 169.384 141.019 169.34 141.294L168.562 146.163C168.549 146.244 168.511 146.319 168.453 146.376C168.395 146.434 168.321 146.473 168.24 146.486C168.159 146.499 168.076 146.486 168.003 146.449C167.93 146.413 167.87 146.354 167.832 146.281L161.618 134.34Z" fill="#050810"/>
<path d="M161.618 134.34C161.581 134.272 161.565 134.195 161.572 134.118C161.579 134.04 161.609 133.967 161.659 133.908C161.708 133.848 161.774 133.805 161.849 133.783C161.923 133.762 162.002 133.763 162.075 133.787L174.967 137.661C175.046 137.685 175.115 137.733 175.165 137.798C175.214 137.863 175.242 137.942 175.245 138.024C175.247 138.106 175.223 138.186 175.177 138.254C175.131 138.321 175.065 138.373 174.988 138.401L170.351 140.075C170.089 140.169 169.857 140.332 169.679 140.546C169.501 140.761 169.384 141.019 169.34 141.294L168.562 146.163C168.549 146.244 168.511 146.319 168.453 146.376C168.395 146.434 168.321 146.473 168.24 146.486C168.159 146.499 168.076 146.486 168.003 146.449C167.93 146.413 167.87 146.354 167.832 146.281L161.618 134.34Z" stroke="url(#paint1_linear_461_72878)" stroke-width="0.876469" stroke-linecap="round" stroke-linejoin="round"/>
</g>
<g clip-path="url(#clip0_461_72878)">
<rect x="-16.5449" y="23.291" width="186.661" height="10.98" rx="5.49002" transform="rotate(7.29089 -16.5449 23.291)" fill="#E3E5E8"/>
<rect x="-18.4961" y="38.5388" width="101.748" height="10.98" rx="5.49002" transform="rotate(7.29089 -18.4961 38.5388)" fill="#E3E5E8"/>
<rect x="-21.9048" y="65.1648" width="37.6882" height="12.2706" rx="6.13528" transform="rotate(7.29089 -21.9048 65.1648)" fill="#050810"/>
<rect x="-20.5679" y="54.7322" width="59.5999" height="5.25881" rx="2.62941" transform="rotate(7.29089 -20.5679 54.7322)" fill="#E3E5E8"/>
<rect x="42.8975" y="62.8521" width="48.2058" height="5.25881" rx="2.62941" transform="rotate(7.29089 42.8975 62.8521)" fill="#E3E5E8"/>
<rect x="95.0596" y="69.5256" width="29.7999" height="5.25881" rx="2.62941" transform="rotate(7.29089 95.0596 69.5256)" fill="#E3E5E8"/>
</g>
<rect x="-24.3877" y="3.83838" width="206.425" height="91.5004" transform="rotate(7.29089 -24.3877 3.83838)" stroke="#BCBCBC" stroke-opacity="0.4" stroke-width="0.876469" stroke-linecap="round"/>
<rect x="178.252" y="26.8127" width="5.25881" height="5.25881" transform="rotate(7.29089 178.252 26.8127)" fill="#DBDBDB"/>
<rect x="178.252" y="26.8127" width="5.25881" height="5.25881" transform="rotate(7.29089 178.252 26.8127)" stroke="#B2B2B2" stroke-width="0.876469"/>
<rect x="166.641" y="117.573" width="5.25881" height="5.25881" transform="rotate(7.29089 166.641 117.573)" fill="#DBDBDB"/>
<rect x="166.641" y="117.573" width="5.25881" height="5.25881" transform="rotate(7.29089 166.641 117.573)" stroke="#B2B2B2" stroke-width="0.876469"/>
<g filter="url(#filter2_b_461_72878)">
<path d="M150.018 299.211C149.981 299.143 149.965 299.066 149.972 298.989C149.98 298.912 150.01 298.839 150.059 298.779C150.108 298.72 150.175 298.676 150.249 298.655C150.323 298.633 150.402 298.634 150.476 298.658L163.368 302.533C163.446 302.556 163.515 302.604 163.565 302.669C163.615 302.734 163.643 302.813 163.645 302.895C163.647 302.977 163.624 303.057 163.578 303.125C163.531 303.193 163.465 303.244 163.388 303.272L158.751 304.946C158.489 305.04 158.257 305.203 158.079 305.418C157.902 305.632 157.785 305.89 157.74 306.165L156.963 311.034C156.95 311.115 156.912 311.19 156.854 311.248C156.796 311.306 156.721 311.344 156.64 311.357C156.559 311.37 156.477 311.357 156.403 311.321C156.33 311.284 156.27 311.225 156.233 311.153L150.018 299.211Z" fill="#050810"/>
<path d="M150.018 299.211C149.981 299.143 149.965 299.066 149.972 298.989C149.98 298.912 150.01 298.839 150.059 298.779C150.108 298.72 150.175 298.676 150.249 298.655C150.323 298.633 150.402 298.634 150.476 298.658L163.368 302.533C163.446 302.556 163.515 302.604 163.565 302.669C163.615 302.734 163.643 302.813 163.645 302.895C163.647 302.977 163.624 303.057 163.578 303.125C163.531 303.193 163.465 303.244 163.388 303.272L158.751 304.946C158.489 305.04 158.257 305.203 158.079 305.418C157.902 305.632 157.785 305.89 157.74 306.165L156.963 311.034C156.95 311.115 156.912 311.19 156.854 311.248C156.796 311.306 156.721 311.344 156.64 311.357C156.559 311.37 156.477 311.357 156.403 311.321C156.33 311.284 156.27 311.225 156.233 311.153L150.018 299.211Z" stroke="url(#paint2_linear_461_72878)" stroke-width="0.876469" stroke-linecap="round" stroke-linejoin="round"/>
</g>
<g clip-path="url(#clip1_461_72878)">
<rect x="-28.1455" y="188.161" width="84.3685" height="10.98" rx="5.49002" transform="rotate(7.29089 -28.1455 188.161)" fill="#E3E5E8"/>
<rect x="-30.0957" y="203.409" width="185.209" height="10.98" rx="5.49002" transform="rotate(7.29089 -30.0957 203.409)" fill="#E3E5E8"/>
<rect x="-33.502" y="230.035" width="37.6882" height="12.2706" rx="6.13528" transform="rotate(7.29089 -33.502 230.035)" fill="#050810"/>
<rect x="-32.168" y="219.603" width="59.5999" height="5.25881" rx="2.62941" transform="rotate(7.29089 -32.168 219.603)" fill="#E3E5E8"/>
<rect x="31.2983" y="227.722" width="48.2058" height="5.25881" rx="2.62941" transform="rotate(7.29089 31.2983 227.722)" fill="#E3E5E8"/>
<rect x="83.46" y="234.396" width="29.7999" height="5.25881" rx="2.62941" transform="rotate(7.29089 83.46 234.396)" fill="#E3E5E8"/>
</g>
<rect x="-35.9839" y="168.709" width="206.425" height="91.5004" transform="rotate(7.29089 -35.9839 168.709)" stroke="#BCBCBC" stroke-opacity="0.4" stroke-width="0.876469" stroke-linecap="round"/>
<rect x="166.656" y="191.684" width="5.25881" height="5.25881" transform="rotate(7.29089 166.656 191.684)" fill="#DBDBDB"/>
<rect x="166.656" y="191.684" width="5.25881" height="5.25881" transform="rotate(7.29089 166.656 191.684)" stroke="#B2B2B2" stroke-width="0.876469"/>
<rect x="155.045" y="282.444" width="5.25881" height="5.25881" transform="rotate(7.29089 155.045 282.444)" fill="#DBDBDB"/>
<rect x="155.045" y="282.444" width="5.25881" height="5.25881" transform="rotate(7.29089 155.045 282.444)" stroke="#B2B2B2" stroke-width="0.876469"/>
<defs>
<filter id="filter0_b_461_72878" x="181.284" y="209.057" width="32.421" height="31.4589" filterUnits="userSpaceOnUse" color-interpolation-filters="sRGB">
<feFlood flood-opacity="0" result="BackgroundImageFix"/>
<feGaussianBlur in="BackgroundImageFix" stdDeviation="4.42887"/>
<feComposite in2="SourceAlpha" operator="in" result="effect1_backgroundBlur_461_72878"/>
<feBlend mode="normal" in="SourceGraphic" in2="effect1_backgroundBlur_461_72878" result="shape"/>
</filter>
<filter id="filter1_b_461_72878" x="152.367" y="124.565" width="32.0806" height="31.1285" filterUnits="userSpaceOnUse" color-interpolation-filters="sRGB">
<feFlood flood-opacity="0" result="BackgroundImageFix"/>
<feGaussianBlur in="BackgroundImageFix" stdDeviation="4.38234"/>
<feComposite in2="SourceAlpha" operator="in" result="effect1_backgroundBlur_461_72878"/>
<feBlend mode="normal" in="SourceGraphic" in2="effect1_backgroundBlur_461_72878" result="shape"/>
</filter>
<filter id="filter2_b_461_72878" x="140.768" y="289.436" width="32.0806" height="31.1285" filterUnits="userSpaceOnUse" color-interpolation-filters="sRGB">
<feFlood flood-opacity="0" result="BackgroundImageFix"/>
<feGaussianBlur in="BackgroundImageFix" stdDeviation="4.38234"/>
<feComposite in2="SourceAlpha" operator="in" result="effect1_backgroundBlur_461_72878"/>
<feBlend mode="normal" in="SourceGraphic" in2="effect1_backgroundBlur_461_72878" result="shape"/>
</filter>
<linearGradient id="paint0_linear_461_72878" x1="197.772" y1="217.768" x2="198.743" y2="233.707" gradientUnits="userSpaceOnUse">
<stop stop-color="white"/>
<stop offset="1" stop-color="white"/>
</linearGradient>
<linearGradient id="paint1_linear_461_72878" x1="168.133" y1="133.184" x2="167.173" y2="148.956" gradientUnits="userSpaceOnUse">
<stop stop-color="white"/>
<stop offset="1" stop-color="white"/>
</linearGradient>
<linearGradient id="paint2_linear_461_72878" x1="156.534" y1="298.056" x2="155.573" y2="313.828" gradientUnits="userSpaceOnUse">
<stop stop-color="white"/>
<stop offset="1" stop-color="white"/>
</linearGradient>
<clipPath id="clip0_461_72878">
<rect x="-24.3877" y="3.83838" width="206.425" height="91.5004" transform="rotate(7.29089 -24.3877 3.83838)" fill="white"/>
</clipPath>
<clipPath id="clip1_461_72878">
<rect x="-35.9839" y="168.709" width="206.425" height="91.5004" transform="rotate(7.29089 -35.9839 168.709)" fill="white"/>
</clipPath>
</defs>
</svg>
