<svg width="179" height="173" viewBox="0 0 179 173" fill="none" xmlns="http://www.w3.org/2000/svg">
<path d="M73.605 50.6357C73.605 41.2082 81.2475 33.5657 90.675 33.5657V33.5657C100.102 33.5657 107.745 41.2082 107.745 50.6357V58.5462H73.605V50.6357Z" stroke="#F1F2F3" stroke-width="4.9961"/>
<path d="M123.149 66.0405C132.577 66.0405 140.219 73.683 140.219 83.1105V83.1105C140.219 92.538 132.577 100.181 123.149 100.181L115.239 100.181L115.239 66.0405L123.149 66.0405Z" stroke="#F1F2F3" stroke-width="4.9961"/>
<path d="M106.913 115.585C106.913 125.012 99.2701 132.655 89.8426 132.655V132.655C80.4151 132.655 72.7726 125.012 72.7726 115.585V107.674H106.913V115.585Z" stroke="#F1F2F3" stroke-width="4.9961"/>
<path d="M57.3674 100.181C47.9399 100.181 40.2974 92.5382 40.2974 83.1107V83.1107C40.2974 73.6832 47.9399 66.0407 57.3674 66.0407L65.2778 66.0407L65.2778 100.181L57.3674 100.181Z" stroke="#F1F2F3" stroke-width="4.9961"/>
<path d="M101.445 48.3711C108.112 41.7048 118.92 41.7048 125.586 48.3711V48.3711C132.252 55.0373 132.252 65.8455 125.586 72.5117L119.992 78.1053L95.8518 53.9646L101.445 48.3711Z" stroke="#F1F2F3" stroke-width="4.9961"/>
<path d="M125.585 94.2974C132.251 100.964 132.251 111.772 125.585 118.438V118.438C118.919 125.104 108.111 125.104 101.444 118.438L95.8508 112.844L119.991 88.7038L125.585 94.2974Z" stroke="#F1F2F3" stroke-width="4.9961"/>
<path d="M79.0713 117.849C72.405 124.516 61.5969 124.516 54.9307 117.849V117.849C48.2644 111.183 48.2644 100.375 54.9307 93.7087L60.5242 88.1152L84.6648 112.256L79.0713 117.849Z" stroke="#F1F2F3" stroke-width="4.9961"/>
<path d="M54.9307 71.9233C48.2644 65.2571 48.2644 54.449 54.9307 47.7827V47.7827C61.5969 41.1165 72.405 41.1165 79.0713 47.7827L84.6648 53.3763L60.5242 77.5169L54.9307 71.9233Z" stroke="#F1F2F3" stroke-width="4.9961"/>
<g filter="url(#filter0_d_461_72955)">
<rect x="54.4512" y="48.5535" width="70.5172" height="70.5172" rx="15.0037" fill="#2E66EF"/>
<rect x="58.8413" y="53.0977" width="61.0423" height="61.0423" rx="12.2085" fill="#1755ED"/>
<path d="M84.5063 71.73C84.5063 66.2965 88.9111 61.8918 94.3445 61.8918H105.822C105.822 67.3253 101.418 71.73 95.9842 71.73H84.5063Z" fill="white"/>
<path d="M84.5063 71.7302L84.5063 94.2175C84.5063 99.651 80.1016 104.056 74.6682 104.056L74.6682 81.5684C74.6682 76.1349 79.0729 71.7302 84.5063 71.7302Z" fill="white"/>
<path d="M84.1704 79.0002C84.1704 84.2495 88.4258 88.5049 93.6751 88.5049H105.081C105.081 83.2556 100.825 79.0002 95.576 79.0002H84.1704Z" fill="white"/>
</g>
<defs>
<filter id="filter0_d_461_72955" x="0.743111" y="-5.15459" width="177.933" height="177.933" filterUnits="userSpaceOnUse" color-interpolation-filters="sRGB">
<feFlood flood-opacity="0" result="BackgroundImageFix"/>
<feColorMatrix in="SourceAlpha" type="matrix" values="0 0 0 0 0 0 0 0 0 0 0 0 0 0 0 0 0 0 127 0" result="hardAlpha"/>
<feOffset/>
<feGaussianBlur stdDeviation="26.854"/>
<feComposite in2="hardAlpha" operator="out"/>
<feColorMatrix type="matrix" values="0 0 0 0 0 0 0 0 0 0 0 0 0 0 0 0 0 0 0.14 0"/>
<feBlend mode="normal" in2="BackgroundImageFix" result="effect1_dropShadow_461_72955"/>
<feBlend mode="normal" in="SourceGraphic" in2="effect1_dropShadow_461_72955" result="shape"/>
</filter>
</defs>
</svg>
