<svg width="318" height="318" viewBox="0 0 318 318" fill="none" xmlns="http://www.w3.org/2000/svg">
<path d="M104.677 127.668C104.677 115.251 114.742 105.185 127.159 105.185H190.443C202.86 105.185 212.925 115.251 212.925 127.668V190.952C212.925 203.368 202.86 213.434 190.443 213.434H127.159C114.742 213.434 104.677 203.368 104.677 190.952V127.668Z" stroke="url(#paint0_radial_461_72798)" stroke-width="0.832683"/>
<path d="M93.0191 116.01C93.0191 103.593 103.085 93.5276 115.502 93.5276H202.101C214.517 93.5276 224.583 103.593 224.583 116.01V202.609C224.583 215.026 214.517 225.092 202.101 225.092H115.502C103.085 225.092 93.0191 215.026 93.0191 202.609V116.01Z" stroke="url(#paint1_radial_461_72798)" stroke-width="0.832683"/>
<path d="M81.3615 104.353C81.3615 91.9358 91.4273 81.8701 103.844 81.8701H213.758C226.175 81.8701 236.241 91.9358 236.241 104.353V214.267C236.241 226.683 226.175 236.749 213.758 236.749H103.844C91.4273 236.749 81.3615 226.683 81.3615 214.267V104.353Z" stroke="url(#paint2_radial_461_72798)" stroke-width="0.832683"/>
<path d="M72.202 95.193C72.202 82.7763 82.2678 72.7106 94.6845 72.7106H222.918C235.334 72.7106 245.4 82.7763 245.4 95.193V223.426C245.4 235.843 235.334 245.909 222.918 245.909H94.6845C82.2678 245.909 72.202 235.843 72.202 223.426V95.193Z" stroke="url(#paint3_radial_461_72798)" stroke-width="0.832683"/>
<path d="M59.7118 82.7028C59.7118 70.2861 69.7775 60.2203 82.1942 60.2203H235.408C247.825 60.2203 257.89 70.2861 257.89 82.7028V235.916C257.89 248.333 247.825 258.399 235.408 258.399H82.1942C69.7775 258.399 59.7118 248.333 59.7118 235.916V82.7028Z" stroke="url(#paint4_radial_461_72798)" stroke-width="0.832683"/>
<path d="M47.2215 70.2125C47.2215 57.7958 57.2873 47.7301 69.704 47.7301H247.898C260.315 47.7301 270.381 57.7958 270.381 70.2125V248.407C270.381 260.823 260.315 270.889 247.898 270.889H69.704C57.2873 270.889 47.2215 260.823 47.2215 248.407V70.2125Z" stroke="url(#paint5_radial_461_72798)" stroke-width="0.832683"/>
<path d="M35.564 58.555C35.564 46.1383 45.6297 36.0725 58.0464 36.0725H259.556C271.972 36.0725 282.038 46.1383 282.038 58.555V260.064C282.038 272.481 271.972 282.547 259.556 282.547H58.0464C45.6297 282.547 35.564 272.481 35.564 260.064V58.555Z" stroke="url(#paint6_radial_461_72798)" stroke-width="0.832683"/>
<path d="M23.0737 46.0647C23.0737 33.648 33.1395 23.5823 45.5562 23.5823H272.046C284.463 23.5823 294.528 33.648 294.528 46.0647V272.554C294.528 284.971 284.463 295.037 272.046 295.037H45.5562C33.1395 295.037 23.0737 284.971 23.0737 272.554V46.0647Z" stroke="url(#paint7_radial_461_72798)" stroke-width="0.832683"/>
<path d="M10.5835 33.5745C10.5835 21.1578 20.6492 11.092 33.0659 11.092H284.536C296.953 11.092 307.019 21.1578 307.019 33.5745V285.045C307.019 297.461 296.953 307.527 284.536 307.527H33.0659C20.6492 307.527 10.5835 297.461 10.5835 285.045V33.5745Z" stroke="url(#paint8_radial_461_72798)" stroke-width="0.832683"/>
<path d="M10.5835 33.5745C10.5835 21.1578 20.6492 11.092 33.0659 11.092H284.536C296.953 11.092 307.019 21.1578 307.019 33.5745V285.045C307.019 297.461 296.953 307.527 284.536 307.527H33.0659C20.6492 307.527 10.5835 297.461 10.5835 285.045V33.5745Z" stroke="url(#paint9_radial_461_72798)" stroke-width="0.832683"/>
<path d="M0.591309 23.5823C0.591309 11.1656 10.657 1.09985 23.0737 1.09985H294.528C306.945 1.09985 317.011 11.1656 317.011 23.5823V295.037C317.011 307.454 306.945 317.519 294.528 317.519H23.0737C10.657 317.519 0.591309 307.454 0.591309 295.037V23.5823Z" stroke="url(#paint10_radial_461_72798)" stroke-width="0.832683"/>
<g filter="url(#filter0_d_461_72798)">
<rect x="117.169" y="117.676" width="83.2683" height="83.2683" rx="15.6128" fill="white" shape-rendering="crispEdges"/>
<rect x="117.169" y="117.676" width="83.2683" height="83.2683" rx="15.6128" stroke="url(#paint11_linear_461_72798)" stroke-width="0.832683" shape-rendering="crispEdges"/>
<path d="M152.162 145.541C152.162 138.774 157.648 133.289 164.415 133.289H178.71C178.71 140.056 173.224 145.541 166.457 145.541H152.162Z" fill="#050810"/>
<path d="M152.162 145.541L152.162 173.548C152.162 180.315 146.676 185.801 139.909 185.801L139.909 157.794C139.909 151.027 145.395 145.541 152.162 145.541Z" fill="#050810"/>
<path d="M151.746 154.596C151.746 161.134 157.046 166.434 163.584 166.434H177.789C177.789 159.896 172.489 154.596 165.951 154.596H151.746Z" fill="#050810"/>
</g>
<path d="M117.1 127.82C117.256 127.764 117.415 127.707 117.549 127.672C117.676 127.639 117.921 127.585 118.184 127.676C118.486 127.78 118.722 128.017 118.827 128.319C118.918 128.582 118.863 128.827 118.83 128.954C118.795 129.088 118.738 129.247 118.682 129.403L114.707 140.477C114.637 140.672 114.57 140.858 114.504 141.002C114.448 141.123 114.322 141.389 114.046 141.539C113.744 141.703 113.381 141.708 113.075 141.552C112.795 141.409 112.661 141.147 112.602 141.027C112.532 140.885 112.461 140.7 112.386 140.508L110.596 135.906L105.995 134.117C105.802 134.042 105.618 133.97 105.476 133.9C105.356 133.841 105.094 133.708 104.951 133.428C104.795 133.122 104.8 132.759 104.964 132.457C105.114 132.181 105.379 132.054 105.501 131.999C105.645 131.932 105.831 131.866 106.026 131.796L117.1 127.82Z" fill="#050810" stroke="white" stroke-width="1.24902" stroke-linecap="round" stroke-linejoin="round"/>
<g filter="url(#filter1_bdi_461_72798)">
<rect x="53.0518" y="139.325" width="56.6537" height="20.6615" rx="6.66146" fill="#050810"/>
<path d="M63.567 153.656L61.5186 146.212H62.7676L64.4263 152.657H64.1166L65.8352 146.212H67.0642L68.7829 152.657H68.4632L70.1319 146.212H71.3709L69.3325 153.656H68.0035L66.2749 147.311H66.6246L64.886 153.656H63.567ZM72.1384 153.656V148.25H73.2675V153.656H72.1384ZM72.1384 147.511V146.212H73.2675V147.511H72.1384ZM74.5877 153.656V146.092H75.7168V153.656H74.5877ZM77.0369 153.656V146.092H78.166V153.656H77.0369ZM79.4862 153.656V148.25H80.6153V153.656H79.4862ZM79.4862 147.511V146.212H80.6153V147.511H79.4862ZM83.5542 153.776C83.1878 153.776 82.8647 153.713 82.5849 153.586C82.3118 153.453 82.0986 153.273 81.9454 153.047C81.7922 152.814 81.7156 152.54 81.7156 152.227C81.7156 151.934 81.7789 151.671 81.9055 151.438C82.0387 151.205 82.2419 151.008 82.515 150.848C82.7881 150.689 83.1312 150.575 83.5442 150.509L85.4227 150.199V151.088L83.764 151.378C83.4642 151.431 83.2444 151.528 83.1045 151.668C82.9646 151.801 82.8947 151.974 82.8947 152.187C82.8947 152.394 82.9713 152.564 83.1245 152.697C83.2844 152.824 83.4876 152.887 83.734 152.887C84.0405 152.887 84.3069 152.82 84.5334 152.687C84.7666 152.554 84.9464 152.377 85.073 152.157C85.1996 151.931 85.2628 151.681 85.2628 151.408V150.019C85.2628 149.753 85.1629 149.536 84.9631 149.37C84.7699 149.196 84.5101 149.11 84.1837 149.11C83.8839 149.11 83.6208 149.19 83.3943 149.35C83.1745 149.503 83.0113 149.703 82.9047 149.949L81.9654 149.48C82.0653 149.213 82.2285 148.98 82.455 148.78C82.6815 148.574 82.9447 148.414 83.2444 148.3C83.5508 148.187 83.8739 148.131 84.2137 148.131C84.64 148.131 85.0164 148.211 85.3428 148.37C85.6759 148.53 85.9323 148.753 86.1122 149.04C86.2987 149.32 86.392 149.646 86.392 150.019V153.656H85.3128V152.677L85.5426 152.707C85.4161 152.927 85.2529 153.117 85.053 153.277C84.8598 153.436 84.6367 153.56 84.3835 153.646C84.1371 153.733 83.8606 153.776 83.5542 153.776ZM87.7122 153.656V148.25H88.7913V149.42L88.6514 149.24C88.7647 148.873 88.9712 148.597 89.271 148.41C89.5707 148.224 89.9138 148.131 90.3002 148.131C90.7332 148.131 91.1162 148.247 91.4493 148.48C91.789 148.707 92.0155 149.01 92.1287 149.39L91.809 149.42C91.9689 148.987 92.212 148.663 92.5384 148.45C92.8715 148.237 93.2512 148.131 93.6775 148.131C94.0506 148.131 94.387 148.217 94.6867 148.39C94.9932 148.564 95.2363 148.803 95.4162 149.11C95.596 149.416 95.686 149.766 95.686 150.159V153.656H94.5568V150.469C94.5568 150.196 94.5069 149.966 94.407 149.779C94.3137 149.586 94.1805 149.44 94.0073 149.34C93.8407 149.233 93.6442 149.18 93.4177 149.18C93.1912 149.18 92.9914 149.233 92.8182 149.34C92.645 149.44 92.5084 149.586 92.4085 149.779C92.3086 149.972 92.2586 150.202 92.2586 150.469V153.656H91.1395V150.469C91.1395 150.196 91.0895 149.966 90.9896 149.779C90.8964 149.586 90.7631 149.44 90.5899 149.34C90.4234 149.233 90.2236 149.18 89.9904 149.18C89.7639 149.18 89.5641 149.233 89.3909 149.34C89.2177 149.44 89.0811 149.586 88.9812 149.779C88.8879 149.972 88.8413 150.202 88.8413 150.469V153.656H87.7122ZM98.8929 153.776C98.34 153.776 97.8537 153.64 97.434 153.366C97.021 153.093 96.7313 152.727 96.5647 152.267L97.434 151.858C97.5806 152.164 97.7804 152.407 98.0336 152.587C98.2934 152.767 98.5798 152.857 98.8929 152.857C99.1594 152.857 99.3759 152.797 99.5424 152.677C99.7089 152.557 99.7922 152.394 99.7922 152.187C99.7922 152.054 99.7556 151.948 99.6823 151.868C99.609 151.781 99.5157 151.711 99.4025 151.658C99.2959 151.605 99.186 151.565 99.0728 151.538L98.2234 151.298C97.7571 151.165 97.4074 150.965 97.1742 150.699C96.9478 150.425 96.8345 150.109 96.8345 149.749C96.8345 149.423 96.9178 149.14 97.0843 148.9C97.2509 148.653 97.4807 148.464 97.7738 148.33C98.0669 148.197 98.3966 148.131 98.763 148.131C99.256 148.131 99.6956 148.254 100.082 148.5C100.468 148.74 100.741 149.076 100.901 149.509L100.032 149.919C99.9254 149.659 99.7556 149.453 99.5224 149.3C99.2959 149.146 99.0395 149.07 98.753 149.07C98.5065 149.07 98.31 149.13 98.1635 149.25C98.0169 149.363 97.9436 149.513 97.9436 149.699C97.9436 149.826 97.977 149.932 98.0436 150.019C98.1102 150.099 98.1968 150.166 98.3034 150.219C98.4099 150.266 98.5199 150.306 98.6331 150.339L99.5124 150.599C99.9587 150.725 100.302 150.925 100.542 151.198C100.781 151.465 100.901 151.784 100.901 152.157C100.901 152.477 100.815 152.76 100.642 153.007C100.475 153.247 100.242 153.436 99.9421 153.576C99.6423 153.71 99.2926 153.776 98.8929 153.776Z" fill="white"/>
</g>
<path d="M212.997 212.754C212.841 212.698 212.682 212.641 212.548 212.606C212.421 212.573 212.176 212.519 211.913 212.61C211.611 212.714 211.374 212.951 211.27 213.253C211.179 213.516 211.233 213.761 211.266 213.888C211.301 214.022 211.358 214.181 211.414 214.337L215.39 225.411C215.459 225.605 215.526 225.792 215.592 225.936C215.648 226.057 215.775 226.323 216.051 226.473C216.353 226.637 216.716 226.642 217.022 226.486C217.302 226.343 217.435 226.081 217.494 225.961C217.564 225.819 217.636 225.634 217.711 225.441L219.5 220.84L224.102 219.051C224.294 218.976 224.479 218.904 224.621 218.834C224.741 218.775 225.003 218.641 225.146 218.362C225.302 218.056 225.297 217.693 225.133 217.391C224.983 217.115 224.717 216.988 224.596 216.932C224.452 216.866 224.266 216.799 224.071 216.73L212.997 212.754Z" fill="#050810" stroke="white" stroke-width="1.24902" stroke-linecap="round" stroke-linejoin="round"/>
<g filter="url(#filter2_bdi_461_72798)">
<rect x="222.919" y="224.259" width="54.6537" height="20.6615" rx="6.66146" fill="#050810"/>
<path d="M232.29 238.59V231.146H233.389L236.187 235.023H235.637L238.385 231.146H239.484V238.59H238.315V232.535L238.755 232.654L235.947 236.491H235.827L233.079 232.654L233.469 232.535V238.59H232.29ZM240.913 238.59V233.184H242.043V238.59H240.913ZM240.913 232.445V231.146H242.043V232.445H240.913ZM245.931 238.71C245.391 238.71 244.911 238.587 244.492 238.34C244.079 238.087 243.749 237.747 243.503 237.321C243.263 236.895 243.143 236.412 243.143 235.872C243.143 235.339 243.263 234.859 243.503 234.433C243.742 234.007 244.072 233.674 244.492 233.434C244.911 233.187 245.391 233.064 245.931 233.064C246.297 233.064 246.64 233.131 246.96 233.264C247.28 233.391 247.556 233.567 247.789 233.794C248.029 234.02 248.206 234.283 248.319 234.583L247.33 235.043C247.216 234.763 247.033 234.54 246.78 234.373C246.534 234.2 246.25 234.113 245.931 234.113C245.624 234.113 245.348 234.19 245.101 234.343C244.861 234.49 244.672 234.7 244.532 234.973C244.392 235.239 244.322 235.542 244.322 235.882C244.322 236.222 244.392 236.528 244.532 236.801C244.672 237.068 244.861 237.278 245.101 237.431C245.348 237.584 245.624 237.661 245.931 237.661C246.257 237.661 246.54 237.577 246.78 237.411C247.026 237.238 247.21 237.008 247.33 236.721L248.319 237.191C248.212 237.477 248.039 237.737 247.799 237.97C247.566 238.197 247.29 238.377 246.97 238.51C246.65 238.643 246.304 238.71 245.931 238.71ZM249.422 238.59V231.026H250.551V234.243L250.372 234.103C250.505 233.764 250.718 233.507 251.011 233.334C251.304 233.154 251.644 233.064 252.03 233.064C252.43 233.064 252.783 233.151 253.089 233.324C253.396 233.497 253.636 233.737 253.809 234.043C253.982 234.35 254.069 234.7 254.069 235.093V238.59H252.95V235.402C252.95 235.129 252.896 234.899 252.79 234.713C252.69 234.52 252.55 234.373 252.37 234.273C252.19 234.167 251.984 234.113 251.751 234.113C251.524 234.113 251.318 234.167 251.131 234.273C250.951 234.373 250.808 234.52 250.701 234.713C250.601 234.906 250.551 235.136 250.551 235.402V238.59H249.422ZM256.896 238.71C256.53 238.71 256.206 238.646 255.927 238.52C255.654 238.387 255.44 238.207 255.287 237.98C255.134 237.747 255.057 237.474 255.057 237.161C255.057 236.868 255.121 236.605 255.247 236.372C255.38 236.138 255.584 235.942 255.857 235.782C256.13 235.622 256.473 235.509 256.886 235.442L258.764 235.133V236.022L257.106 236.312C256.806 236.365 256.586 236.462 256.446 236.601C256.306 236.735 256.236 236.908 256.236 237.121C256.236 237.327 256.313 237.497 256.466 237.631C256.626 237.757 256.829 237.82 257.076 237.82C257.382 237.82 257.649 237.754 257.875 237.621C258.108 237.487 258.288 237.311 258.415 237.091C258.541 236.865 258.605 236.615 258.605 236.342V234.953C258.605 234.686 258.505 234.47 258.305 234.303C258.112 234.13 257.852 234.043 257.525 234.043C257.226 234.043 256.963 234.123 256.736 234.283C256.516 234.436 256.353 234.636 256.246 234.883L255.307 234.413C255.407 234.147 255.57 233.913 255.797 233.714C256.023 233.507 256.286 233.347 256.586 233.234C256.893 233.121 257.216 233.064 257.555 233.064C257.982 233.064 258.358 233.144 258.685 233.304C259.018 233.464 259.274 233.687 259.454 233.973C259.64 234.253 259.734 234.58 259.734 234.953V238.59H258.655V237.611L258.884 237.641C258.758 237.86 258.595 238.05 258.395 238.21C258.202 238.37 257.978 238.493 257.725 238.58C257.479 238.666 257.202 238.71 256.896 238.71ZM263.592 238.71C263.052 238.71 262.573 238.587 262.153 238.34C261.74 238.087 261.417 237.747 261.184 237.321C260.951 236.888 260.834 236.405 260.834 235.872C260.834 235.326 260.951 234.843 261.184 234.423C261.424 234.003 261.743 233.674 262.143 233.434C262.543 233.187 262.996 233.064 263.502 233.064C263.908 233.064 264.271 233.134 264.591 233.274C264.911 233.414 265.181 233.607 265.401 233.854C265.62 234.093 265.787 234.37 265.9 234.683C266.02 234.996 266.08 235.329 266.08 235.682C266.08 235.769 266.077 235.859 266.07 235.952C266.063 236.045 266.05 236.132 266.03 236.212H261.723V235.312H265.391L264.851 235.722C264.918 235.396 264.894 235.106 264.781 234.853C264.674 234.593 264.508 234.39 264.281 234.243C264.062 234.09 263.802 234.013 263.502 234.013C263.202 234.013 262.936 234.09 262.703 234.243C262.469 234.39 262.29 234.603 262.163 234.883C262.036 235.156 261.987 235.489 262.013 235.882C261.98 236.248 262.03 236.568 262.163 236.841C262.303 237.114 262.496 237.327 262.743 237.481C262.996 237.634 263.282 237.711 263.602 237.711C263.928 237.711 264.205 237.637 264.431 237.491C264.664 237.344 264.848 237.154 264.981 236.921L265.9 237.371C265.794 237.624 265.627 237.854 265.401 238.06C265.181 238.26 264.914 238.42 264.601 238.54C264.295 238.653 263.958 238.71 263.592 238.71ZM267.182 238.59V231.026H268.311V238.59H267.182Z" fill="white"/>
</g>
<defs>
<filter id="filter0_d_461_72798" x="107.593" y="111.431" width="117.408" height="117.408" filterUnits="userSpaceOnUse" color-interpolation-filters="sRGB">
<feFlood flood-opacity="0" result="BackgroundImageFix"/>
<feColorMatrix in="SourceAlpha" type="matrix" values="0 0 0 0 0 0 0 0 0 0 0 0 0 0 0 0 0 0 127 0" result="hardAlpha"/>
<feOffset dx="7.49414" dy="10.8249"/>
<feGaussianBlur stdDeviation="8.32683"/>
<feComposite in2="hardAlpha" operator="out"/>
<feColorMatrix type="matrix" values="0 0 0 0 0 0 0 0 0 0 0 0 0 0 0 0 0 0 0.05 0"/>
<feBlend mode="normal" in2="BackgroundImageFix" result="effect1_dropShadow_461_72798"/>
<feBlend mode="normal" in="SourceGraphic" in2="effect1_dropShadow_461_72798" result="shape"/>
</filter>
<filter id="filter1_bdi_461_72798" x="43.0596" y="129.333" width="76.6382" height="63.9609" filterUnits="userSpaceOnUse" color-interpolation-filters="sRGB">
<feFlood flood-opacity="0" result="BackgroundImageFix"/>
<feGaussianBlur in="BackgroundImageFix" stdDeviation="4.9961"/>
<feComposite in2="SourceAlpha" operator="in" result="effect1_backgroundBlur_461_72798"/>
<feColorMatrix in="SourceAlpha" type="matrix" values="0 0 0 0 0 0 0 0 0 0 0 0 0 0 0 0 0 0 127 0" result="hardAlpha"/>
<feMorphology radius="13.3229" operator="erode" in="SourceAlpha" result="effect2_dropShadow_461_72798"/>
<feOffset dy="26.6458"/>
<feGaussianBlur stdDeviation="9.99219"/>
<feComposite in2="hardAlpha" operator="out"/>
<feColorMatrix type="matrix" values="0 0 0 0 0 0 0 0 0 0 0 0 0 0 0 0 0 0 0.4 0"/>
<feBlend mode="multiply" in2="effect1_backgroundBlur_461_72798" result="effect2_dropShadow_461_72798"/>
<feBlend mode="normal" in="SourceGraphic" in2="effect2_dropShadow_461_72798" result="shape"/>
<feColorMatrix in="SourceAlpha" type="matrix" values="0 0 0 0 0 0 0 0 0 0 0 0 0 0 0 0 0 0 127 0" result="hardAlpha"/>
<feOffset/>
<feGaussianBlur stdDeviation="3.33073"/>
<feComposite in2="hardAlpha" operator="arithmetic" k2="-1" k3="1"/>
<feColorMatrix type="matrix" values="0 0 0 0 0.972549 0 0 0 0 0.972549 0 0 0 0 0.972549 0 0 0 0.25 0"/>
<feBlend mode="normal" in2="shape" result="effect3_innerShadow_461_72798"/>
</filter>
<filter id="filter2_bdi_461_72798" x="212.927" y="214.267" width="74.6382" height="63.9609" filterUnits="userSpaceOnUse" color-interpolation-filters="sRGB">
<feFlood flood-opacity="0" result="BackgroundImageFix"/>
<feGaussianBlur in="BackgroundImageFix" stdDeviation="4.9961"/>
<feComposite in2="SourceAlpha" operator="in" result="effect1_backgroundBlur_461_72798"/>
<feColorMatrix in="SourceAlpha" type="matrix" values="0 0 0 0 0 0 0 0 0 0 0 0 0 0 0 0 0 0 127 0" result="hardAlpha"/>
<feMorphology radius="13.3229" operator="erode" in="SourceAlpha" result="effect2_dropShadow_461_72798"/>
<feOffset dy="26.6458"/>
<feGaussianBlur stdDeviation="9.99219"/>
<feComposite in2="hardAlpha" operator="out"/>
<feColorMatrix type="matrix" values="0 0 0 0 0 0 0 0 0 0 0 0 0 0 0 0 0 0 0.4 0"/>
<feBlend mode="multiply" in2="effect1_backgroundBlur_461_72798" result="effect2_dropShadow_461_72798"/>
<feBlend mode="normal" in="SourceGraphic" in2="effect2_dropShadow_461_72798" result="shape"/>
<feColorMatrix in="SourceAlpha" type="matrix" values="0 0 0 0 0 0 0 0 0 0 0 0 0 0 0 0 0 0 127 0" result="hardAlpha"/>
<feOffset/>
<feGaussianBlur stdDeviation="3.33073"/>
<feComposite in2="hardAlpha" operator="arithmetic" k2="-1" k3="1"/>
<feColorMatrix type="matrix" values="0 0 0 0 0.972549 0 0 0 0 0.972549 0 0 0 0 0.972549 0 0 0 0.25 0"/>
<feBlend mode="normal" in2="shape" result="effect3_innerShadow_461_72798"/>
</filter>
<radialGradient id="paint0_radial_461_72798" cx="0" cy="0" r="1" gradientUnits="userSpaceOnUse" gradientTransform="translate(158.801 159.31) rotate(90) scale(165.288)">
<stop stop-color="#E5E5E5"/>
<stop offset="1" stop-color="#E5E5E5" stop-opacity="0"/>
</radialGradient>
<radialGradient id="paint1_radial_461_72798" cx="0" cy="0" r="1" gradientUnits="userSpaceOnUse" gradientTransform="translate(158.801 159.31) rotate(90) scale(165.288)">
<stop stop-color="#E5E5E5"/>
<stop offset="1" stop-color="#E5E5E5" stop-opacity="0"/>
</radialGradient>
<radialGradient id="paint2_radial_461_72798" cx="0" cy="0" r="1" gradientUnits="userSpaceOnUse" gradientTransform="translate(158.801 159.31) rotate(90) scale(165.288)">
<stop stop-color="#E5E5E5"/>
<stop offset="1" stop-color="#E5E5E5" stop-opacity="0"/>
</radialGradient>
<radialGradient id="paint3_radial_461_72798" cx="0" cy="0" r="1" gradientUnits="userSpaceOnUse" gradientTransform="translate(158.801 159.31) rotate(90) scale(165.288)">
<stop stop-color="#E5E5E5"/>
<stop offset="1" stop-color="#E5E5E5" stop-opacity="0"/>
</radialGradient>
<radialGradient id="paint4_radial_461_72798" cx="0" cy="0" r="1" gradientUnits="userSpaceOnUse" gradientTransform="translate(158.801 159.31) rotate(90) scale(165.288)">
<stop stop-color="#E5E5E5"/>
<stop offset="1" stop-color="#E5E5E5" stop-opacity="0"/>
</radialGradient>
<radialGradient id="paint5_radial_461_72798" cx="0" cy="0" r="1" gradientUnits="userSpaceOnUse" gradientTransform="translate(158.801 159.31) rotate(90) scale(165.288)">
<stop stop-color="#E5E5E5"/>
<stop offset="1" stop-color="#E5E5E5" stop-opacity="0"/>
</radialGradient>
<radialGradient id="paint6_radial_461_72798" cx="0" cy="0" r="1" gradientUnits="userSpaceOnUse" gradientTransform="translate(158.801 159.31) rotate(90) scale(165.288)">
<stop stop-color="#E5E5E5"/>
<stop offset="1" stop-color="#E5E5E5" stop-opacity="0"/>
</radialGradient>
<radialGradient id="paint7_radial_461_72798" cx="0" cy="0" r="1" gradientUnits="userSpaceOnUse" gradientTransform="translate(158.801 159.31) rotate(90) scale(165.288)">
<stop stop-color="#E5E5E5"/>
<stop offset="1" stop-color="#E5E5E5" stop-opacity="0"/>
</radialGradient>
<radialGradient id="paint8_radial_461_72798" cx="0" cy="0" r="1" gradientUnits="userSpaceOnUse" gradientTransform="translate(158.801 159.31) rotate(90) scale(165.288)">
<stop stop-color="#E5E5E5"/>
<stop offset="1" stop-color="#E5E5E5" stop-opacity="0"/>
</radialGradient>
<radialGradient id="paint9_radial_461_72798" cx="0" cy="0" r="1" gradientUnits="userSpaceOnUse" gradientTransform="translate(158.801 159.31) rotate(90) scale(165.288)">
<stop stop-color="#E5E5E5"/>
<stop offset="1" stop-color="#E5E5E5" stop-opacity="0"/>
</radialGradient>
<radialGradient id="paint10_radial_461_72798" cx="0" cy="0" r="1" gradientUnits="userSpaceOnUse" gradientTransform="translate(158.801 159.31) rotate(90) scale(165.288)">
<stop stop-color="#E5E5E5"/>
<stop offset="1" stop-color="#E5E5E5" stop-opacity="0"/>
</radialGradient>
<linearGradient id="paint11_linear_461_72798" x1="121.332" y1="124.754" x2="162.967" y2="171.384" gradientUnits="userSpaceOnUse">
<stop stop-color="#E4E4E4"/>
<stop offset="1" stop-color="#D8D8D8" stop-opacity="0"/>
</linearGradient>
</defs>
</svg>
