<svg width="318" height="243" viewBox="0 0 318 243" fill="none" xmlns="http://www.w3.org/2000/svg">
<path d="M105.135 51.8842C105.135 39.4675 115.2 29.4017 127.617 29.4017H190.901C203.318 29.4017 213.383 39.4675 213.383 51.8842V115.168C213.383 127.585 203.318 137.651 190.901 137.651H127.617C115.2 137.651 105.135 127.585 105.135 115.168V51.8842Z" stroke="url(#paint0_radial_461_72954)" stroke-width="0.832683"/>
<path d="M93.4771 40.2266C93.4771 27.8099 103.543 17.7442 115.96 17.7442H202.559C214.975 17.7442 225.041 27.8099 225.041 40.2266V126.826C225.041 139.242 214.975 149.308 202.559 149.308H115.96C103.543 149.308 93.4771 139.242 93.4771 126.826V40.2266Z" stroke="url(#paint1_radial_461_72954)" stroke-width="0.832683"/>
<path d="M81.8195 28.5691C81.8195 16.1524 91.8853 6.08663 104.302 6.08663H214.216C226.633 6.08663 236.699 16.1524 236.699 28.5691V138.483C236.699 150.9 226.633 160.966 214.216 160.966H104.302C91.8853 160.966 81.8195 150.9 81.8195 138.483V28.5691Z" stroke="url(#paint2_radial_461_72954)" stroke-width="0.832683"/>
<path d="M72.66 19.4096C72.66 6.99285 82.7258 -3.07288 95.1425 -3.07288H223.376C235.792 -3.07288 245.858 6.99285 245.858 19.4096V147.643C245.858 160.059 235.792 170.125 223.376 170.125H95.1425C82.7258 170.125 72.66 160.059 72.66 147.643V19.4096Z" stroke="url(#paint3_radial_461_72954)" stroke-width="0.832683"/>
<path d="M60.1698 6.91932C60.1698 -5.49738 70.2355 -15.5631 82.6522 -15.5631H235.866C248.283 -15.5631 258.348 -5.49739 258.348 6.91931V160.133C258.348 172.55 248.283 182.615 235.866 182.615H82.6522C70.2355 182.615 60.1698 172.55 60.1698 160.133V6.91932Z" stroke="url(#paint4_radial_461_72954)" stroke-width="0.832683"/>
<path d="M47.6795 -5.57093C47.6795 -17.9876 57.7453 -28.0534 70.162 -28.0534H248.356C260.773 -28.0534 270.839 -17.9876 270.839 -5.57093V172.623C270.839 185.04 260.773 195.106 248.356 195.106H70.162C57.7453 195.106 47.6795 185.04 47.6795 172.623V-5.57093Z" stroke="url(#paint5_radial_461_72954)" stroke-width="0.832683"/>
<path d="M36.022 -17.2285C36.022 -29.6452 46.0877 -39.7109 58.5044 -39.7109H260.014C272.43 -39.7109 282.496 -29.6452 282.496 -17.2285V184.281C282.496 196.697 272.43 206.763 260.014 206.763H58.5044C46.0877 206.763 36.022 196.697 36.022 184.281V-17.2285Z" stroke="url(#paint6_radial_461_72954)" stroke-width="0.832683"/>
<path d="M23.5318 -29.7187C23.5318 -42.1354 33.5975 -52.2012 46.0142 -52.2012H272.504C284.921 -52.2012 294.986 -42.1354 294.986 -29.7187V196.771C294.986 209.188 284.921 219.253 272.504 219.253H46.0142C33.5975 219.253 23.5318 209.188 23.5318 196.771V-29.7187Z" stroke="url(#paint7_radial_461_72954)" stroke-width="0.832683"/>
<path d="M11.0415 -42.209C11.0415 -54.6257 21.1072 -64.6914 33.5239 -64.6914H284.994C297.411 -64.6914 307.477 -54.6257 307.477 -42.209V209.261C307.477 221.678 297.411 231.744 284.994 231.744H33.5239C21.1072 231.744 11.0415 221.678 11.0415 209.261V-42.209Z" stroke="url(#paint8_radial_461_72954)" stroke-width="0.832683"/>
<path d="M11.0415 -42.209C11.0415 -54.6257 21.1072 -64.6914 33.5239 -64.6914H284.994C297.411 -64.6914 307.477 -54.6257 307.477 -42.209V209.261C307.477 221.678 297.411 231.744 284.994 231.744H33.5239C21.1072 231.744 11.0415 221.678 11.0415 209.261V-42.209Z" stroke="url(#paint9_radial_461_72954)" stroke-width="0.832683"/>
<path d="M1.04932 -52.2012C1.04932 -64.6179 11.115 -74.6836 23.5318 -74.6836H294.986C307.403 -74.6836 317.469 -64.6179 317.469 -52.2012V219.253C317.469 231.67 307.403 241.736 294.986 241.736H23.5317C11.115 241.736 1.04932 231.67 1.04932 219.253V-52.2012Z" stroke="url(#paint10_radial_461_72954)" stroke-width="0.832683"/>
<defs>
<radialGradient id="paint0_radial_461_72954" cx="0" cy="0" r="1" gradientUnits="userSpaceOnUse" gradientTransform="translate(159.259 83.5261) rotate(90) scale(113.245)">
<stop stop-color="#E5E5E5"/>
<stop offset="1" stop-color="#E5E5E5" stop-opacity="0"/>
</radialGradient>
<radialGradient id="paint1_radial_461_72954" cx="0" cy="0" r="1" gradientUnits="userSpaceOnUse" gradientTransform="translate(159.259 83.5261) rotate(90) scale(113.245)">
<stop stop-color="#E5E5E5"/>
<stop offset="1" stop-color="#E5E5E5" stop-opacity="0"/>
</radialGradient>
<radialGradient id="paint2_radial_461_72954" cx="0" cy="0" r="1" gradientUnits="userSpaceOnUse" gradientTransform="translate(159.259 83.5261) rotate(90) scale(113.245)">
<stop stop-color="#E5E5E5"/>
<stop offset="1" stop-color="#E5E5E5" stop-opacity="0"/>
</radialGradient>
<radialGradient id="paint3_radial_461_72954" cx="0" cy="0" r="1" gradientUnits="userSpaceOnUse" gradientTransform="translate(159.259 83.5261) rotate(90) scale(113.245)">
<stop stop-color="#E5E5E5"/>
<stop offset="1" stop-color="#E5E5E5" stop-opacity="0"/>
</radialGradient>
<radialGradient id="paint4_radial_461_72954" cx="0" cy="0" r="1" gradientUnits="userSpaceOnUse" gradientTransform="translate(159.259 83.5261) rotate(90) scale(113.245)">
<stop stop-color="#E5E5E5"/>
<stop offset="1" stop-color="#E5E5E5" stop-opacity="0"/>
</radialGradient>
<radialGradient id="paint5_radial_461_72954" cx="0" cy="0" r="1" gradientUnits="userSpaceOnUse" gradientTransform="translate(159.259 83.5261) rotate(90) scale(113.245)">
<stop stop-color="#E5E5E5"/>
<stop offset="1" stop-color="#E5E5E5" stop-opacity="0"/>
</radialGradient>
<radialGradient id="paint6_radial_461_72954" cx="0" cy="0" r="1" gradientUnits="userSpaceOnUse" gradientTransform="translate(159.259 83.5261) rotate(90) scale(113.245)">
<stop stop-color="#E5E5E5"/>
<stop offset="1" stop-color="#E5E5E5" stop-opacity="0"/>
</radialGradient>
<radialGradient id="paint7_radial_461_72954" cx="0" cy="0" r="1" gradientUnits="userSpaceOnUse" gradientTransform="translate(159.259 83.5261) rotate(90) scale(113.245)">
<stop stop-color="#E5E5E5"/>
<stop offset="1" stop-color="#E5E5E5" stop-opacity="0"/>
</radialGradient>
<radialGradient id="paint8_radial_461_72954" cx="0" cy="0" r="1" gradientUnits="userSpaceOnUse" gradientTransform="translate(159.259 83.5261) rotate(90) scale(113.245)">
<stop stop-color="#E5E5E5"/>
<stop offset="1" stop-color="#E5E5E5" stop-opacity="0"/>
</radialGradient>
<radialGradient id="paint9_radial_461_72954" cx="0" cy="0" r="1" gradientUnits="userSpaceOnUse" gradientTransform="translate(159.259 83.5261) rotate(90) scale(113.245)">
<stop stop-color="#E5E5E5"/>
<stop offset="1" stop-color="#E5E5E5" stop-opacity="0"/>
</radialGradient>
<radialGradient id="paint10_radial_461_72954" cx="0" cy="0" r="1" gradientUnits="userSpaceOnUse" gradientTransform="translate(159.259 83.5261) rotate(90) scale(113.245)">
<stop stop-color="#E5E5E5"/>
<stop offset="1" stop-color="#E5E5E5" stop-opacity="0"/>
</radialGradient>
</defs>
</svg>
