<svg width="32" height="33" viewBox="0 0 32 33" fill="none" xmlns="http://www.w3.org/2000/svg">
<rect y="0.458313" width="32" height="32" rx="8" fill="#F1F2F3"/>
<g clip-path="url(#clip0_450_17083)">
<path d="M16 26.4583C21.5228 26.4583 26 21.9812 26 16.4583C26 10.9355 21.5228 6.45831 16 6.45831C10.4772 6.45831 6 10.9355 6 16.4583C6 21.9812 10.4772 26.4583 16 26.4583Z" fill="#4353FF"/>
<path d="M18.9374 15.2708L18.0312 18.1271C18.0312 17.9083 17.4062 13.1708 17.4062 13.1708C15.9687 13.1708 15.2062 14.1896 14.8062 15.2708L13.6999 18.1333C13.6999 17.9271 13.5437 15.2958 13.5437 15.2958C13.4903 14.7262 13.2299 14.1959 12.8118 13.8055C12.3936 13.415 11.8468 13.1914 11.2749 13.1771L12.4499 20.3521C13.9499 20.3521 14.7624 19.3333 15.1812 18.2521L16.1187 15.8146C16.1187 15.9146 16.7437 20.3521 16.7437 20.3521C17.357 20.3513 17.9542 20.1552 18.4486 19.7922C18.9431 19.4292 19.3091 18.9183 19.4937 18.3333L21.6187 13.1708C20.1187 13.1708 19.3312 14.1896 18.9312 15.2708H18.9374Z" fill="white"/>
</g>
<defs>
<clipPath id="clip0_450_17083">
<rect width="20" height="20" fill="white" transform="translate(6 6.45831)"/>
</clipPath>
</defs>
</svg>
